<?xml version="1.0" encoding="utf-8"?>
<!-- Generator: Adobe Illustrator 21.0.0, SVG Export Plug-In . SVG Version: 6.00 Build 0)  -->
<svg version="1.2" baseProfile="tiny" id="图层_1"
	 xmlns="http://www.w3.org/2000/svg" xmlns:xlink="http://www.w3.org/1999/xlink" x="0px" y="0px" viewBox="0 0 500 500"
	 xml:space="preserve">
<g>
	<path d="M16.5,330.4c-8.5-11-11.8-23.9-13.9-37.2c-2.7-17.5,4.4-32.8,11.7-47.8c10.1-20.6,26.5-36.1,43.4-51
		c8.2-7.2,17.5-12.8,26.7-18.5c3.9,1.8,3.1,5.9,4.5,8.7c-0.3-3.4-2.9-6.6-1.9-10.5c5-3,10-5.8,15.3-8.2c4.6,0.4,6.5,4.8,10.1,6.8
		c0.8,0.6,1.6,1.3,2.4,1.9c1.6,1.2,3.2,2.4,4.9,3.6c9.8,7.7,19.5,15.6,28.9,23.8c12.6,14,22.8,29.6,31.2,46.4
		c4.4,9,5.6,18.8,5.6,28.6c0,4.2,2.6,7.7,2.8,11.8c-0.6,2.2-3.5,1.8-4.4,3.7c-0.7,0.6-1.4,1.1-2.3,0.9c-2.8-2.6-4.8-0.7-6.8,1.3
		c-1.9,1.4-2.7,3.7-4.3,5.3c-2.4,0.9-5,1.1-7.4,1.6c-5.1,1-9.3,3.3-12.4,7.5c-4.1,4.9-4.7,4.9-8.4-0.3c-0.5-0.7-1.1-1.4-1.7-2.1
		c-5.5-5.3-11.8-7.7-19.4-5.7c-2.6,0.7-5.4,0.2-8,1.3c-2.7,1.4-5.4,4-8.5,0.6c-7.8-6.1-16.2-6-24.8-2.3c-4.7,2-9.2,4.5-12.8,8.4
		c-1.1,1.2-2.5,2.2-4,3c-0.5,0.3-1,0.6-1.5,0.9c-5.8,4.4-5.8,4.4-10.6-1c-3-2.5-6.2-4.7-9.5-6.8c-6.9-4.4-14.4-2.7-18.6,4.3
		c-2.8,4.7-4.9,9.6-4.4,15.3C18.1,326.6,19.3,329.2,16.5,330.4z"/>
	<path d="M144.2,151.7c7-2.2,14.1-3.9,21.4-5.1c2.9-0.5,5,1.7,8.2,0.6c3.4-1.1,4.3,3.4,6.1,5.6c1.8,2.2,1.7,4.6-0.8,6.2
		c-2.5,1.6-1.9,3.1-0.7,5.2c1.9,3.4,3.5,7,5.2,10.5c0.9,1.8,3.1,3.8-0.7,5.2c-0.9,0.3-0.5,1.6-0.1,2.4c1.6,2.9,3.2,5.8,4.8,8.7
		c0.7,1.3,1.7,1.9,2.8,0.7c3.7-4.3,5.5-1.2,7.3,1.8c0.7,1.2,1.3,2.4,2,3.5c-2.9,1.4-6.3,1.8-8.8,4c-0.7,0.6-1.9,1-1.8,1.8
		c0.4,3.2,2.5,5.6,4.1,8.3c1.3,2.2,3.4,1,5.2,0.5c3.1-0.7,5.2-3.6,8.4-4.1c2.3,1.2,2.8,3.7,4.3,5.5c0.8,1.5,1.8,3,1.7,4.8
		c-2.5,2.1-6,2.5-8.7,4.3c-1.4,0.9-2.6,1.7-1.6,3.5c0.8,1.6,1.9,2.7,3.9,2.2c3.6-0.8,6-3.1,8.2-5.8c0.4,0.1,0.8,0.2,1.1,0.5
		c0.7,0.7,1.4,1.6,2,2.4c1.5,2.2,3.2,2.4,5.3,0.9c1.4-1,2.8-2.4,4.8-2.1c2.1,1.7,3.6,3.8,4.1,6.6c-1.5,3.4-4.6,5-7.6,6.7
		c-1.7-0.4-2.6-1.8-3.6-3.2c-0.8-1.1-1.5-3.2-3.2-1.4c-1.4,1.4-4.1,2.7-2,5.5c1.2,1.5,2.6,2.9,1.8,5.2c-0.4,0.8-1.1,1.4-1.9,1.8
		c-1.7,0.9-2.5,2.1-1.2,3.9c0.9,1.3,1.8,3.1,3.8,2.2c1.8-0.8,3.4-2.1,3.1-4.4c-0.1-1.3-1.3-2.4-1.3-3.8c0.3-2.4,1.9-3.4,4.1-3.8
		c4.2,2.5,5,7.5,8.1,10.9c1.5,2.2,3.1,0.9,4.7,0.2c2.2-1,4.4-2.5,6.7-0.7c2.5,2,4.1,4.4,2.8,7.9c-0.4,1-0.5,2.1,0.9,2.6
		c6.3-1.5,6.3-1.5,10.2,4c1.1,1.6,2.1,3.3,3.1,5c0.6,1.1,1.4,2.1,2.8,1c1-0.7,1.9-1.5,2.7-2.3c3.6-5.2,3.6-5.2-0.2-10.2
		c-2-2.7-4.3-5.1-6.1-7.9c-1.8-2.7-3.8-3.5-6.7-2.3c-3.5-2.5-5.9-5.7-6.8-10c1.4-3.8,4.2-6.7,7-9.4c2.6-2.6,2.8-4.6,0.3-7.2
		c-1.2-1.3-2.2-2.8-3.3-4.3c-0.2-0.4-0.2-0.8-0.1-1.2c1.7-2.9,4.8-3.9,7.3-5.8c2.3-1.7,4.8-3.1,6.6-5.3c1-1.2,2.6-0.9,3.8-1.6
		c1.3-0.8,2.7-0.7,4.2-0.4c1.8,2.6,4.3,4.7,5.5,7.6c-2.8,7.3-8.4,12.8-12.5,19.3c-1.4,2.2-2.6,4.4-2.8,7c-0.2,0.9-0.5,1.6-0.9,2.4
		c-1.5,2.1-1.5,4,0.3,6.1c3.7,4.5,7.4,9.1,10.9,13.7c0.8,1.1,1.6,2.2,3.3,1.5c4.8-2,8.5-5.6,12.9-8.2c2.3-1.4,1-3.1,0.5-4.7
		c0.2-1.8,1.3-2.8,3-3.1c4.3,2.1,6.4,6.1,8.5,10.1c0.9,1.6,0.3,3.2-1.3,4.3c-1.5,1-2.8,1-3.9-0.5c-1.8-2.4-3.7-1-5.6-0.1
		c-2.7,1.5-5.4,3.1-7.9,4.8c-2.7,1.5-4.9,3.6-7.5,5.3c-2,1-3.3,2.9-4.9,4.5c-1.9,1.3-3.4,3-5.1,4.4c-4,3.5-4,3.5-1.2,8.1
		c5.4,8.5,10.9,17,16.3,25.5c0.9,1.5,2.3,2.9,2.1,4.9c-0.8,3-3.7,3.7-5.8,5.3c-2.1,1.7-1.5,3.1-0.3,4.9c1.3,1.9,2.4,2.7,4.7,1.4
		c3-1.7,4.8-3.9,5.2-7.2c1.1-0.9,2.6-0.7,3.7-1.5c1-0.6,1.6-1.5,0.8-2.6c-0.7-0.8-1.6-0.4-2.4,0.2c-1.3,0.9-1.6,2.5-2.8,3.5
		c-2.3-0.1-3.3-1.3-3.1-3.6c3.2-4.8,8-7.5,13-10.1c4.6,1.2,6.4,3.8,5,7.3c-3.5,3.2-7,6.5-10.7,9.7c-1.6,1.4-1.5,2.5-0.4,4.2
		c3.4,5.1,6.6,10.4,10,15.5c2.3,3.5,6.8,4.1,10.3,7.6c-4.1,0-7.6,0-11.1,0c-2.4-1.2-2.7-3.8-3.9-5.8c-0.9-1.5-1.7-3.2-2.7-4.7
		c-4.2-6-4.5-6.1-8-0.5c-3.1,0.8-6.3,0.5-9.4,0.3c-0.5-0.1-0.9-0.2-1.3-0.4c-1-0.6-1.4-1.7-2.2-2.5c-2.1-1.5-3.7-3.4-5.1-5.5
		c-1.3-2,0.3-4.6-1.3-6.6c-0.6,1-1.3,1.6-2.5,1.6c-1.1,0-2.1,0-3.1,0c-11.2-0.1-11.3-0.1-12,11.2c0,0.6-0.2,1.2-0.7,1.6
		c-1.9,1-3.9,0.9-5.8,0.1c-2.1-2.1-1.2-5.5-3.3-7.7c0.8-6.7,0.5-6.9-6.4-7.1c-4.5-0.2-8.9,1.2-13.5,0.7c-1.8-0.2-2.2,1.2-2.5,2.6
		c-0.8,4.7,0.7,9.2,0.3,13.9c-0.2,2.4-0.2,4.9-2.9,6c-4.6,1-9.2,0.4-13.8,0.4c-3.4,0-4.8-1.9-4.8-5.1c0-2.2,0.4-4.5-1.5-6.3
		c-1.1-1.4-1.2-3-1.3-4.7c-0.1-1.7-0.7-3.1-2.6-2.8c-2,0.3-5-1.7-5.7,2.1c-0.2,3.5,0.5,7.2-2.1,10.3c-3.7,1.8-7.1,0.3-10.7-0.6
		c-1.5-2.5-0.4-4.1,2-5c1.1-0.4,2.4-0.2,3.3-1.1c1.4-3.5,2-7,0.7-10.6c-3.2-1.4-6.5-0.8-9.7-0.4c-0.3,0.2-0.7,0.5-1,0.7
		c-0.8,3.4-1.3,6.7-5.8,8c-2.5,0.8-0.8,4.7-1.1,7.1c-1.1,2.8-4.6,1.7-6.3,3.9c1.7,1.6,3.8,0.8,5.6,1.3c1.3,0.4,3.4,0.6,1.3,2.7
		c-6.6,0.8-13.2,0.7-19.8,0.1c-2.4-1-1-2.8-0.7-4.3c0.3-2.2-0.4-3.5-2.8-3.6c-1.8,0-3.6-0.1-5.4-0.3c-1.4-0.1-2.4,0.3-2.6,1.9
		c-0.2,1.3,0.1,2.3,1.4,3c1.3,0.7,3.6,0,3.6,2.6c-0.4,0.4-0.8,0.6-1.3,0.8c-14.3,1-28.6,0.2-42.9,0.3c-5.6,0-11.3,0-16.9,0
		c-1.1,0.1-2.2,0.1-3.3,0c-2.4-0.2-4.8-0.1-7.2,0c-2.4-0.2-4.8,0.1-7.2-0.4c-4.6-1.3-9.3-0.2-13.9-0.8c-2.3-0.5-4.2-1.4-5.4-3.5
		c-0.1-2.1,1.6-1.8,2.8-1.9c3.2-0.3,5.3-1.5,5.3-5.2c0-3.5-1.3-5.7-4.9-6.2c-0.7-0.1-1.5-0.2-2.2-0.3c-0.7-0.1-1.3-0.3-1.9-0.5
		c-2.6-1.7-5.6-1-8.4-1.2c-1.3-0.6-1.5-1.8-1.5-3.1c3.3-13.1,11.3-14.7,20.9-9.2c3.5,2.7,5.7,6.5,8.9,9.6c3.5,3.4,4.2,3.7,7-0.1
		c3.3-4.4,7.7-7.6,11.7-11.2c4.6-3.3,9.4-5.8,15.1-6.7c4.6-0.8,8.9-0.4,13.2,1.3c2.8,2,5.8,3.8,7.7,6.8c1.3,1.9,1.7,0.8,2.3-0.5
		c0.3-0.6,0.7-1.1,1.1-1.6c2.2-2.1,4.8-3.4,7.8-4.2c6.7-2,12.7-0.5,18,4c2.3,2.7,4.5,5.5,5.9,8.8c0.2,0.5,0.4,1.1,0.7,1.7
		c1.9,3.5,2,3.5,4.4,0c2.7-4,6.1-7.2,9.7-10.3c4.1-2.4,8.3-4.1,13.2-4.2c2.6,0,4.3-1.2,5.3-3.9c1.8-5.1,5.8-7.3,11.2-7.2
		c0.5-1.4-0.9-3,0.5-4.3c1.4-0.4,2.3,0.2,3.1,1.2c1.3,2.2,1.5,4.7,1.6,7.2c0,5,0,9.9-1.4,14.8c-0.7,2.4-1.2,5.2,1.4,7.1
		c1.2,0.9,2.6,0.6,3.9-0.1c2.8-1.8,1.9-4.6,1.6-7c-0.3-2.5-0.9-5-1.5-7.5c-0.2-0.9-0.3-1.8-0.5-2.7c-0.4-1.7-0.3-3.6-0.9-5.3
		c-0.8-2.8-1.7-5.6-2.7-8.3c-1.1-5.1-4.6-9.6-4.5-15.1c0.2-0.7,0.6-1.2,1.3-1.4c6.9,6.5,13.1,13.6,18.8,21.2
		c0.4,0.5,0.1,1.1-0.2,1.7c-3.5,0.2-6-3-9.8-2.6c1.2,3.5,2.8,6.4,6.9,6.5c2.6,0.1,1.5-2.5,2.5-3.6c0.3-0.3,0.7-0.5,1.1-0.5
		c2.3,0.9,3,3.1,4.5,4.8c2.2,2.8,2.3,6.2,3.1,9.4c0.1,0.8,0.3,1.7,0.6,2.5c0.4,1,0.6,2,1.5,2.7c1.1,0.9,2.2,1.6,3.7,1
		c1.5-0.6,2-1.9,1.8-3.3c-0.6-3.7-1.1-7.5-5-9.5c-1.6-0.8-3.2-1.7-3.2-3.9c0.2-0.7,0.7-1.1,1.5-1.3c5.3,0,10.5,0.4,13.9,5.4
		c1.5,2.3,2.2,4.8,3.3,7.3c1.1,2.7,2.9,3.4,5.2,1.3c2.4-2.2,5.1-3.6,8.4-3.7c2.4,0.1,4.7,0.8,7.1,1c1.8,0.1,3.2-0.3,4.4-1.7
		c1.5-0.7,2.1,0.6,2.9,1.3c0.8,0.7,1.7,1.6,2.7,1.1c1.3-0.7,0.8-2.1,0.5-3.2c-0.2-0.7-0.7-1.3-1-2c-1.4-6.3-5.6-10.8-9.9-15.3
		c-7.9-8.4-13.8-18.2-20.8-27.2c-2-2.5-4.3-4-7.5-4.5c-6-1-11.5-3.4-16.7-6.6c-10-8-19.7-16.3-28.4-25.7c-5.1-5-9.6-10.5-14.1-16
		c-6.2-9.6-12.2-19.3-14.1-30.9c-0.8-4.9-0.9-9.8-1.4-14.8c-0.2-2.2-0.7-4.1-2.2-5.7c-1.6-2.6-4-4.8-4.5-8
		C143.8,152.4,143.9,152,144.2,151.7z"/>
	<path fill="#FE764F" d="M386.7,273.1c5.8-5.1,11.7-10.2,17.5-15.3c0.7-0.6,1.4-1,2.4-1.1c1.9,1.1,3.3-0.1,4.7-1
		c5.5-2.8,11.2-4.9,17.5-5.1c8.6,4.9,8.9,10.6,1.2,18.7c2-1.6,3.7-4.3,5.1-7.2c0.7-1.5,0.9-3.7,3.4-3.6c1.6,3.4-0.7,5.9-2.3,8.1
		c-3.7,5.1-8.2,9.4-13.9,12.4c-5.8,1.5-10.2,5.5-15.1,8.6c-4,2.5-8.2,4.2-13,4c-1-0.3-2-0.7-3-0.9c-6.6-1.2-7.3-2-7.6-8.6
		C383.1,278.7,386.5,276.4,386.7,273.1z"/>
	<path fill="#FBBE35" d="M316.2,264.3c2-2.8,1.8-5.9,1.4-9.1c-1.2-1.5-0.2-3,0.2-4.4c-0.7-2.5-0.6-5.4-3-7.3
		c-1.1-0.9-0.6-1.8,0.3-2.6c4.9-4.4,8.3-9.8,10.8-15.8c1.2-0.8,1.8-0.1,2.3,0.9c0.5,2.8-0.3,5.3-1.9,7.6c-3.6,2.9-6.3,6-4.2,11.2
		c0.9,2.2,0.2,4.8,0.3,7.2c0.1,1.6-0.4,3.4,1.1,4.7c3.8,2.4,6.1-0.6,8.1-2.7c3.4-3.6,6.2-7.8,8.3-12.4c0.5-1.1,0.9-2.2,1.4-3.3
		c0.8-1.6,1-3.4,1.4-5.2c2.3-8.2,3.9-16.5,3.5-25c0.3-5.6-1.2-11-2.1-16.4c-0.7-4.2,0-8,0.6-12c0.2-1.4,0.9-2.6,2.6-2.4
		c0.4,3.1,0.9,6.1,1.4,9.9c6.3-6.5,11.8-12.6,15.4-21.7c1.3,4.4-0.7,7.1-0.1,9.9c-5.9,5-6.4,12.4-8.3,19.1c-0.8,2.7-0.5,5.7-0.8,8.5
		c-0.6,5.3,2.2,8.9,5.2,12.5c0.3,0.5,0.6,1,0.9,1.5c-8.4-0.1-10.6,5.6-11.8,12.4c-0.5,3.1-1.5,6.2-2.6,9.1
		c-3.9,10.4-3.6,21.3-3.6,32.2c0,0.8,0.3,1.5,0.7,2.1c0.4,0.3,0.5,0.8,0.4,1.3c-0.5,0.6-1.1,0.8-1.9,0.6c-1.6-0.7-2-2.3-2.5-3.8
		c-0.1-2.8-1.7-4.9-3.3-7c-2.2-2-4.5-1.5-6.4,0.1c-2.7,2.3-5.8,4.5-4.5,8.9c0.2,1.6-0.3,3.2-0.4,4.8c-0.8,2,1.2,6.5-4,4.5
		c-1.4-1.6-1.1-3.7-1.6-5.6c-1.4-4.4-1.9-4.7-5.9-2.7c-1.6,0.8-3.1,1.8-4.8,2.5c-1.5,0.6-3.1,0.5-4-1c-1-1.8,0.3-3,1.7-3.5
		C310.4,270,312.4,266,316.2,264.3z"/>
	<path fill="#F22514" d="M93.5,91.2c5.2,15.6,9,31.9,19.9,45c0.7,1.1,1.1,2.4,0.1,3.3c-1.1,1-2.2-0.1-3.2-0.7
		c-2.6-2.8-2.6-2.8-3.9-6.2c0.6,2.6,2.2,4.9,2.4,7.6c0.1,2.4-0.3,4.3-3.4,3.6c-1.6-0.8-1.9-2.5-2.8-3.8c-3-5.9-4.3-12.5-7.3-18.4
		c-3.4-11.7-7.5-23.1-12.7-34.1c-1.4-6.3-5.3-11.5-7.9-17.3c-3-5.1-5.4-10.8-11.7-13c-6.4-1-10.6,1.5-12.6,8
		c-1.8,5.9-1.5,11.9-0.2,17.8c0.9,4.1,2,8.2,1.8,12.5c-0.1,1.6,0.2,3.4-1.4,4.5c-5.8-10.7-9.2-21.9-6.2-34.3
		c1.6-6.6,5.8-11.2,11.7-14.2c5.6-2.9,12.2-0.7,17.1,5.3c5.8,7.1,11.1,14.6,15,23.1c0.3,0.6,0.9,1.1,1.4,1.6
		c3.3,1.6,2.7,5.2,4.1,7.8C94,90.1,94,90.7,93.5,91.2z"/>
	<path fill="#9B1A12" d="M429.4,251.4c-6.5,0.6-12.5,2.7-18.3,5.4c-0.7,0.5-1.4,0.5-1.8-0.2c-0.4-0.7,0.1-1.3,0.8-1.6
		c6.3-4.5,13.6-6.5,21.9-9.2c-3.1-1-5.3-1.6-7.7-2.4c1.3-1.9,3.2-1,4.5-1.5c1.4-0.5,4,0.7,3.9-2.3c-0.3-1,0.1-1.2,1-1
		c0.8,0.6,1,1.9,2.3,2c0.1-0.2,0.4-0.5,0.3-0.7c-2.6-5.7-0.2-11.3,0.2-17c0.6-8.8-0.4-17.8,0.6-26.6c2,1.6,1.5,3.8,1.5,5.8
		c0.1,10.4,0,20.8,0,31.6c0.3-2.1,0-3.9,1.5-5.1c1.6,3.9,0.4,8,0.8,12.5c3.3-3.3,2.4-7.4,3.2-11.6c2.3,3.9,0.1,7.3,0.5,10.9
		c2.8-1,5.4-1.9,8.4-0.4c-1.9,2.3-5,1.2-6.5,3.5c2.9,1.1,5.7,2.3,8.2,4.2c1.6,2.3,0.5,4.5-0.2,6.7c-1.9,4.5-4.7,8.4-8.3,11.7
		c-2.6,2.4-5.9,3.9-8.4,6.4c-2.2,1.5-4.2,3.2-6.3,4.7c-1.6,1.3-3.2,2.4-4.9,3.6c-2.7,1.8-5.2,3.8-8,5.5c-2,1.4-4.3,2.3-6.4,3.7
		c-2.3,1.4-4.5,3-6.7,4.6c-4.6,2.6-8.8,5.8-13.9,7.5c-2.2,0.1-4.4,1.2-6.7,0.3c-1.1-1.6,0.3-2.2,1.3-2.6
		c12.7-5.3,23.8-13.3,34.7-21.5c0.2-0.2,0.6-0.1,0.9-0.1c5.6-4.2,11.4-8.2,14.8-14.6c0.8-1.6,1.8-3.1,1.5-5.1
		c-0.6-0.6-0.6-1.3-0.6-2.1c0.1-3.6-1.7-5.1-5.2-5C431.5,251.7,430.4,251.8,429.4,251.4z"/>
	<path fill="#020202" d="M440.2,228.7c-0.9,3,0.5,6.2-0.8,9.3c-2-1.9-2.1-1.9-2.1-5.2c-0.1-12.2-0.1-24.3-0.1-36.5
		c0.9-4.6-1-5.8-5.5-5.6c-8.4,0.4-16.9,0.3-25.4-0.1c-6.6-0.2-10.9-5.3-9.7-11c0.8-3.9,3.7-6.1,7.2-7.4c1.4-1.4,3.2-1.1,4.9-1.2
		c7.8-0.1,15.7,0.1,23.5-0.1c1.7,0,3.3,0,4.7,1.1c4.6,0.5,8.1,2.7,9.3,7.3c1.1,4.5-0.8,8-4.8,10.2c-1.8,1-1.4,2.5-1.4,3.9
		C440.1,205.3,440.2,217,440.2,228.7z"/>
	<path fill="#FCF0BE" d="M33.6,342c1.5,0.9,3,1.9,4.6,2.8c0.7,0.6,1.5,1.1,0.8,2.2c-2.5,1.4-4.8,3.4-8,2.4
		c-3.7-2.3-7.7-1.7-11.7-1.3c-1.1,0.1-2.6,0.4-2.4,2c0.2,1.2,1.4,1.4,2.5,1.5c2.7,0.3,5.3-0.2,7.7-1.6c1.2-0.7,2.5-2,4-0.6
		c2.4,2.1,5.6,1,8.3,1.8c9.3,1,18.7,0.2,28,0.3c33.2,0.1,66.4,0.2,99.6,0.1c2.4,0,4.8,0,7.2,0c20.3,0.2,40.5-0.2,60.8-0.1
		c15.5-0.2,31.1-0.1,46.6-0.1c1.8,0,3.7-0.1,5.2,1.3c-1.7,2.4-4.2,2-6.6,2c-21.1,0-42.1,0-63.2,0.1c-4,0-8.1,0.5-12.1,0.8
		c-9-0.6-18-0.6-27,0c-35.4-1.7-70.9-0.4-106.3-0.8c-13.7-0.2-27.4,1.3-41.1,1c-6.2-0.1-12.3-1.1-18.5-1c-2.2,0-4-0.5-4.7-2.7
		c-0.8-2.6,1-4.3,2.9-5c5.5-1.9,10.8-4.6,16.8-5c1-0.1,2.1,0.1,2.9-0.9C31.5,340,32.7,340.5,33.6,342z"/>
	<path fill="#AA2E3B" d="M314.7,451.3c-2.2-5-2.3-10.4-1.4-15.4c1.4-8.1-0.8-15.8-1.5-23.6c-0.4-4-1.2-8-1.8-12
		c3.3-0.5,3.8-1.6,1.8-4.6c-4-5.8-6.4-12.6-10.4-18.5c-1.5-2.2-1.1-4.6,0.5-6.8c2.1-0.8,2.5,1.1,3.4,2.1c1.5,1.9,2.7,4,4.2,5.8
		c0.8,1,1.2,1.4,0.8-0.4c0.1-0.9,0.2-1.7,1-2.3c3.7,5.1,6.5,10.7,8.9,16.5c-0.8,1.2-0.5,2.3,0.2,3.4c6.2,9.4,9.2,20,11.5,30.8
		c0.5,2.2,1.2,4.4,2.1,6.5c0.3,4.5,1.6,9.1-1.9,13c-3-2-3.8-5.5-5.1-8.5c-4-9.6-8-19.2-11.8-29.4c0.7,3.2,1,6,1.7,8.8
		c0.6,6.8,2.3,13.4,2.1,20.2C318.8,442,317.2,446.7,314.7,451.3z"/>
	<path fill="#0417BB" d="M383.7,324.9c-8.1,4.7-12.6,0.4-16.2-6.4c-1-1.8-2.7-3.2-4.1-4.8c-2.4-1.5-5.3-2.5-5.9-5.9
		c-2-3.3-1.3-5.8,2-7.9c1.7-1.1,3.3-2.7,4.5-4.4c2.3-3.3,4.8-3.7,7.7-1c4.8,1.2,6.9,5.5,9.9,8.8c3.3,3.4,6.1,7.4,9.8,10.4
		c0.8,1.3,1.6,2.6,1.7,4.1C391,321.5,387.9,323.9,383.7,324.9z"/>
	<path fill="#115672" d="M346.7,266.8c-0.3-1.5-0.3-3,0.3-4.4c8.4-21.6,23.1-37.7,43.4-48.8c0.7-0.4,1.7-0.4,2.6-0.6
		c7.2,0,8.8,2.6,5.5,8.7c-1.7,3-3.5,6-5.6,8.7c-2.3,3-4.3,6.3-6.1,9.5c-5.3,9.7-13,17.4-20.9,24.9c-1.3,1.2-2.7,2.5-4.8,2
		c-1.3-2.4,0.8-3.5,2-5c4.2-5.1,8.7-10,12.6-15.4c0.3-0.6,0.7-1.1,1.2-1.5c3.4-3.6,6.1-7.8,9-11.7c1-1.3,1.6-2.9,1.6-4.6
		c0-1.8-1.3-1.2-2.2-1.1c-1,0.3-1.9,0.6-2.8,1c-3.1,1.2-5,3.9-7.4,6c-7.7,4.3-13.9,10.3-18.6,17.7c-0.4,0.5-0.8,1-1.2,1.5
		c-2.1,2.9-3.9,6-5.1,9.4C349.7,265,349.2,267,346.7,266.8z"/>
	<path fill="#4858DC" d="M316.2,264.3c-2,3.9-5.4,6.2-9.1,8.3c-0.8,0.4-2.8,0.3-1.5,2.3c0.9,1.3,1.9,1.3,3,0.5
		c0.5-0.3,0.9-0.8,1.4-1.1c2.8-1.3,6.5-4.7,8.3-3.2c2.6,2,3.8,6.2,3,10.2c-0.9,4.1-4.2,6.2-7.3,8.5c-3.4-0.4-4.9-3.9-7.8-5.1
		c-1-0.7-2.2-1.4-2.8-2.6c-1-5.8-4.3-10.5-7.8-15c-0.2-4.6-4.6-6.7-5.9-10.7c2.6-1.8,5.1-3.5,7,0.9c0.7,1.6,1.7,0.1,2.5-0.3
		c1.5-0.9,1.5-2.1,0.5-3.4c-2.3-3.3-4.7-6.6-7.6-9.4c-0.3-2.5,1.3-3.2,3.4-3.5c2,0.2,2.9,1.9,4,3.3c3.9,4.9,7.5,10.1,11.2,15.1
		c0.9,1.2,1.5,2.6,3.3,2.7C314.7,262.6,315.5,263.4,316.2,264.3z"/>
	<path fill="#1E97C2" d="M303.8,282c1,0.5,1.9,1.1,2.9,1.6c0.8,2,2.6,3.3,3.9,4.9c0.8,1.1,2.4,2.1,2.2,3.3
		c-0.7,5.4,3.1,8.8,5.2,12.9c-0.1,2.1-0.6,4-2.9,4.8c-2-0.6-1.8-3.5-4.1-4c-0.2,2.5,2.4,3,3.2,4.8c-0.5,2.3-1.4,4.5-3.8,5.5
		c-0.7-0.4-1-1.1-1.6-1.7c-1.6,1.1-0.8,4.6-3.9,4.2c-1.8-2-2.9-4.5-5.2-6c0.2-3.5-2.1-5.3-4.7-6.7c-3.6-2-5.2-5.4-6.9-8.8
		c0.1-2.4,2.1-3.5,3.4-5.1c1.9-1.9,3.9-3.6,5.4-5.9C298.9,283.9,300.1,280.6,303.8,282z"/>
	<path fill="#040404" d="M392.9,317.7c-0.7-1.3-1.4-2.5-2.2-3.8c-0.4-2.7,1.9-3.1,3.5-4.1c1.4-0.8,3-1.4,4.6-2c1-0.4,2-0.8,3-1.1
		c2.7-0.2,5.1-1.2,6.9-3.4c1.9-1.9,4.5-3,6.7-4.6c2.7-1.2,4.7-3.3,7.3-4.6c3-1.7,6-3.6,8.9-5.4c1.1-0.6,2.1-1.3,3.1-2
		c2.1-0.8,3.7-3.2,6.4-2.2c1,1.6,2.7,2.7,2.8,4.8c-4.2,1.3-7.6,3.4-9.1,7.8c-1.6-0.5-2-3.1-4.6-2.3c0.8,2.6,3.1,1.6,4.6,2.2
		c1.6,3,3.2,6,4.7,9.1c0.6,1.2,1.3,2.9-0.1,3.6c-1.9,1-2-1.2-2.5-2.2c-3.5-7.4-8.2-9-15.7-5.5c-5.4,2.6-10.2,5.6-13.5,10.8
		c-1.6,2.6-1.8,4.7,0.1,7c1.7,2,3.1,4,3,7.2c-3.4-1.3-5.7-3.8-8.4-5.8c-1.7-1.3-3.4-3.2-5.8-1.2
		C394.3,320.8,393.7,319.1,392.9,317.7z"/>
	<path fill="#640916" d="M314.7,451.3c0.5-6.5,4-12.5,2.9-19.3c-0.9-5.4-1.3-10.9-1.9-16.4c2.5,0.1,2.5,2.3,3,3.8
		c2.4,7.2,4.1,14.5,5.6,21.9c0.6,2.9,0.5,6.1,3,8.3c0.6,0.4,1.2,0.9,1.7,1.4c1.6,1.5,3.3,2.7,5.6,1.6c2.4-1.2,2.6-3.4,2.4-5.7
		c-0.2-3-1.9-6.1,0.9-8.8c2.4,1.3,2.2,3.8,2.6,5.9c0.7,3.9,1.1,7.7,1,11.7c-0.2,5.8-4.3,9.7-10,9.3c-5.9-0.5-11.2-2.4-14.1-8.2
		c-0.5-1-0.8-2.3-1.8-3C315.3,453,315,452.1,314.7,451.3z"/>
	<path fill="#030304" d="M460.7,265.5c0.8-0.9,1.9-1.7,2.2-2.8c2.2-8.1,8.7-8.4,15.2-8.6c1.3,0,2.6,0,4.4,0c-2.4,1.4-4.4,2.6-7,4.2
		c5.9,1.2,11.3,0.5,16.7,0.8c-4,1.7-8.3,2.2-12.6,2.4c-0.8,0-2-0.4-2,1c0,0.9,0.8,0.7,1.3,0.9c-0.1,2.5-2.7,0.4-3.3,1.8
		c-2.2,1.4-4.4,2.6-6.5,4.1c-1,0.7-2.6,1.3-2.3,3c0.2,1.6,1.6,2.1,2.9,2.5c1.4,0.4,2.9,0.7,3.9,2.5c-4.2,1.7-8.5,1.3-12.5,2.3
		c-1.5,0.4-3,0.4-4.4,0.8c-5.3,1.3-6.2,4.1-2.5,9.2c-2.8,0-5.3,0-7.8,0c-0.6-2.3-2.3-3.8-3.8-5.5c-0.1-2,1.5-2.8,2.7-3.8
		c3.2-2.7,6.3-5.6,8.7-9C456.1,269.1,457.6,266.4,460.7,265.5z"/>
	<path fill="#881D2C" d="M392,230.3c1.7-2.8,3.4-5.6,5.1-8.4c3.6-6.1,3.1-7.2-4.1-8.9c6.8-3.2,12.2-0.4,17,4.2
		c2,1.9,3.8,4.5,2.7,7.2c-3.8,9.4-6.5,19.4-14,26.9c-1.3,0.4-2.2,1.9-3.9,1.2c-1.1-3.7,1.3-6.6,2.6-9.7c1.2-3,1.7-6,1.6-9.2
		c-0.1-2.7-1-3.3-3.3-1.7c-0.5,0.3-1,0.7-1.5,0.9C391.1,234,391.1,232.6,392,230.3z"/>
	<path fill="#861E16" d="M286.8,352.8c-17.2,0.7-34.5,0.4-51.7,0.2c-5.2-1.4-5.8-2.9-2.7-7.1c5.2-2.6,10.7-1.1,16.1-1.4
		c5.2-0.2,10.4,0.1,15.6-0.2c1.7-0.1,3.4,0,5.1,0c3.8,0.4,7.6,0.2,11.5,0.2c1.4,0.1,2.7-0.3,4.1,0c1.4,0.7,2.5,1.9,2.8,3.2
		c0.4,1.9,1.2,1.2,2.1,0.7c0.5,0.8,0.6,1.7-0.1,2.4C288.6,351.5,287.7,352.2,286.8,352.8z"/>
	<path fill="#0E649B" d="M314.9,309.4c0.9-1.5,1.8-3,2.7-4.5c0.1-0.5,0.1-0.9,0.3-1.3c2.8-6.2,2.8-6.2-2.3-11.1
		c-0.8-0.8-2-1.4-1.7-2.9c2.5-2.8,4.9-5.5,7.4-8.3c1.1,1,2.2,1.9,2.6-0.5c0.2-1.3,0.2-2.6,0.3-3.9c2,0.3,2.1,1.9,2.2,3.4
		c-1.3,9-0.4,18.3-2.5,27.2c-1.3,5.5-0.4,11-0.6,16.5c-0.1,3.4,0.6,7.3-5.1,6.2c-1.1-0.2-2,1.3-3.3,1c-3.2-2.5-4.4-6.6-7.5-9.2
		c-1-3-0.6-5.3,2.8-6.3c1.2-1.8,2.4-3.5,3.7-5.3C313.6,309.5,314.1,309.3,314.9,309.4z"/>
	<path fill="#D31226" d="M148.7,160c2.4,1.9,3.1,4.4,3.1,7.5c0.2,14.6,3.9,28.2,12.6,40.1c1,1.4,1.7,3.2,2.5,4.7
		c0.6,3.2-1.3,1.9-2.4,1.1c-2.4-1.8-4.5-4-6.2-6.5c-4.1-6.3-7.7-12.9-9.9-20.1c-1.1-3.7-2.8-7.3-4.5-10.8c-0.8-1.6-1.7-2.8-3.4-3.4
		c-0.3-0.3-0.6-0.6-0.8-1c-0.5-2.2-2-3.5-3.8-4.7c-3.7-2.7-7.7-5-10.8-8.5c-0.7-1.1-1.6-2.1-1.5-3.6c1.2-2,2.5-3.8,5.2-3.6
		c1.8,1.2,2.8,3.4,5,4.1c3.6,1.2,5.7,4.2,8.3,6.7c0.2,0.4,0.4,0.9,0.7,1.2c1.4,1.4,2.6,4.5,4.7,3.3c2.1-1.2-0.4-3.4-0.8-5.1
		c-0.2-0.7-0.4-1.5,0.2-2.1C147.8,159.2,148.4,159.2,148.7,160z"/>
	<path fill="#FCD99B" d="M314,261.7c-2.1,2.2-2.8-0.2-3.6-1.3c-4.9-6.5-9.7-13-14.5-19.5c-3.3-1.9-4.7-5.4-7.1-8.1
		c-1-1.2-1.9-2.6-2.8-3.9c-1.9-3-4.4-5.5-7.1-7.8c-1.8-1.4-2.8,0.2-3.7,1.2c-3.7,3.9-6.7,8.3-9.1,13.2c-0.3,1.1-0.5,2.2-1.8,2.6
		c-1.7,0.2-2.4-1-2.9-2.4c-0.7-1.9-0.1-3.5,0.9-5.1c4.5-7.2,10.2-13.5,14.4-21c0.1-0.2,0.5-0.2,0.8-0.2c5.3,5.2,9,11.6,13.3,17.5
		C298.9,238.3,306.9,249.7,314,261.7z"/>
	<path fill="#B9DE39" d="M381.1,304c-2.7-3.5-6-6.4-9.2-9.4c3.6-8.1,7.6-15.9,14.9-21.5c1.8,0.3,1.7,1.2,0.8,2.5
		c-1.3,1.8-2.7,3.4-3,5.7c-0.6,2-1.8,3.8-2.5,5.7c-1.3,3.8,0,5.6,4,5.9c3.2,0.2,6-1.5,9.2-1.6c8.7-1.4,15-7.6,22.4-11.7
		c1.3-0.7,2.4-2.4,4.3-1.3c-10.1,9.4-21.5,16.5-34.1,22.1c-1.1,0.5-2.2,1-3.2,1.5C383.9,303.5,382.9,304.5,381.1,304z"/>
	<path fill="#1B246D" d="M392.9,317.7c1.2,0.9,2.4,1.8,3.6,2.7c3.3,4.4,6.6,8.9,10,13.3c-3,4.3-7.7,6.1-12.3,7.8
		c-3.3,1.3-2.7-2.9-4.3-4c-1.8-4.3-4.8-8.1-6.1-12.6C386.8,322.5,389.8,320.1,392.9,317.7z"/>
	<path fill="#445AED" d="M227.7,184.8c3.4-0.6,6.4-0.1,8.4,3c5.7,4.7,7,11.7,8.5,18.2c0.8,3.3-2.4,5.1-5.5,6c-1.8,0-2.5-1.5-3.2-2.8
		c-0.9-1.6-1.8-3.1-2.8-4.7c-4.3-7.3-4.3-7.3-11.7-4.4c-3.9-3.1-3.9-4.7-0.1-7.4c1-0.7,2-1.3,3.1-1.8
		C227.1,189.7,228.3,187.8,227.7,184.8z"/>
	<path fill="#E9CF53" d="M327.6,226c-0.3-0.7-0.9-0.9-1.7-1c3.5-11.2,6.9-22.3,10.4-33.5c0.3-0.9,0.4-4.3,2.6-0.9
		c0.2,0.3,1-1.1,1.3-1.9c1.8-4.1,2.7-8.6,3.6-13c0.3-1.2,0.6-2.3,0.9-3.5c0.2-0.7,0.7-1.5,1.5-1.5c1.2,0.1,1.2,1.1,1.2,2.1
		c0,1.3-0.1,2.7-0.1,4c-2.5,4.4-2.7,9-2,14c0.8,5.7,2.5,11.3,2,17.1c-2.6-0.9-1.6-3.6-2.6-5.3c-0.7-1.2-1.1-2.6-2.6-2.9
		c-1.7-0.4-2.2,1.3-2.9,2.3c-2,2.7-2.7,6.1-4.5,8.8c-1.5,2.2-2,4.7-2.8,7.2C330.4,220.7,331.2,224.6,327.6,226z"/>
	<path fill="#ADE4FD" d="M238.7,211.6c6.1-3.7,5.8-3.6,3.7-10c-1.6-4.9-3.7-9.4-6.3-13.7c4.2,0.3,8.3,0.7,12.5,1
		c2.7,1.3,4.1,3.5,4.5,6.5c-0.1,2-1.7,2.8-3.1,3.4c-3.8,1.6-3.6,4.1-1.8,7.2c1.6,2.8,3.7,5.5,2.7,9.1c-0.3,0.5-0.7,0.9-1,1.4
		c-0.5,2.8-2.5,3.9-5,4.3c-4.9,0.2-5.6-3.7-6.8-7.1C237.9,212.7,238.1,212.1,238.7,211.6z"/>
	<path fill="#8591FD" d="M252.5,195.3c-0.7-2.5-2.6-4.3-3.8-6.5c-1.4-5-1.1-4.8,4.4-4.7c5.3,0,8.4,2.5,10.5,6.9
		c2.1,4.2,5.8,7.2,8.4,11c-1.4,0.5-2.9,1.1-4.3,1.6c-2.7-1-5.4-2.5-8.3-0.3c-1.1,0.8-2.3,0.2-3.1-0.9c-0.9-1.2-1.7-2.4-2.7-3.6
		C252.7,197.7,252.9,196.4,252.5,195.3z"/>
	<path fill="#1C4F9E" d="M50.7,100.2c0.5-6.4-0.6-12.6-2.1-18.7c-1.3-5.5-1.2-11.1,0.5-16.5c1.7-5.7,6.9-11.9,15.6-8.5
		c0.3,0.7,0.4,1.4-0.1,2.1c-1,1-2.3,1.4-3.5,2c-4.8,2.3-7.1,6-7.3,11.4c-0.2,7.2,0.5,14.1,4.1,20.5c0.7,1.3,1.3,2.7,0.8,4.3
		c-2.8,1-5.4,2.3-7.8,4.1C50.7,100.6,50.7,100.4,50.7,100.2z"/>
	<path fill="#F22B3E" d="M112.3,173.5c-3.9-1.7-6.2-5.6-9.9-7.7c0,0,0.1-0.2,0.1-0.2c-5.7-8.9-12.4-16.8-22.2-21.3
		c-2.6-1.6-4.9-2.1-5.9,1.7c-0.4,0.6-0.7,1.5-1.7,0.9c-0.9-5-2.7-9.7-4.7-14.4c1.3-1.2,2.6-0.4,3.8,0.2c3.4,3.2,7.7,4.7,12,6.1
		c6.4,3.5,12.1,7.8,15.7,14.5c3.1,5.9,7.8,10.7,12.2,15.7C112,170.5,115,171.5,112.3,173.5z"/>
	<path fill="#36175A" d="M370.3,344.7c2.2,3.5,1,6.6-1.5,9.2c-2.5,2.6-5.4,4.8-8,7.3c-1.4,0.6-2.7,1.3-4.2,1c-2.7-0.4-3.5-2.8-5-4.5
		c-2-1.3-2.9-2.8-1.2-5.1c1-1.3,0.9-3.4,2.2-4.4c4.1-3.1,3.6-6.4,0.7-9.9c-0.3-1.1-0.3-2.2,0.2-3.2c1.1-1.2,2.7-1.2,3.6-0.2
		c2.3,2.6,5.1,2.3,8,1.7C367.3,338.9,369,341.7,370.3,344.7c-0.3,0.4-0.8,0.5-1.2,0.3c-4.2-1.9-4.2-1.9-5,2.6
		c-0.9,1-2.9-0.9-3.3,1.2c-0.2,0.9,0.3,1.7,1.1,2.3c1.7,1.1,2.6-0.5,3.8-1.2C368.6,349.3,368.9,346.5,370.3,344.7z"/>
	<path fill="#D4162B" d="M289.5,350.9c0-0.8,0-1.6,0-2.4c-0.9-1.2-0.9-2.2,0.5-3c2,0.3,2.7,1.8,3.3,3.4c2.5,5.6,6.1,10.7,8.2,16.5
		c0.5,1.5,1.8,2.9,0.8,4.6c-1.8,4,0,7.1,2.3,10.2c4,5.6,5.6,12.6,10.4,17.7c0.5,0.6,0.9,1.3,0.1,2c-1.6,1.5-3.3,1-5,0.2
		c-1.9-8.8-8.5-15.1-12.4-22.9c-0.5-1.1-1.4-1.9-1-3.3C299,364.9,294.2,357.9,289.5,350.9z"/>
	<path fill="#1D256F" d="M354,338.5c4.4,4.7,4.5,4.9,0.1,9.2c-2.1,2-1.8,5-3.8,7c-1.1,1.2,1.6,0.7,1.8,1.7c-1.4,2.9-3.8,5.1-5.8,7.5
		c-1,1.3-2.3,2-4,1.1c-0.9-1.3-1.9-2.5-2.8-3.8c-0.1-2.6,2.2-3.5,3.6-4.8c2.5-2.3,3.3-4.4,0.7-7.2c-1.3-1.4-2.3-3.2-3.2-4.9
		c-0.4-0.8-0.7-1.6-0.7-2.5c0.5-1.5,1.6-1.9,3-2C346.8,340.6,350.1,337.1,354,338.5z"/>
	<path fill="#0EA612" d="M222.7,110.6c1.4-11.4,7.1-19.8,17.6-24.7c2.2,2.3,1.1,5.2,1.5,7.8c0,0.8-0.1,1.6-0.7,2
		c-5,4-7.6,9.4-9.7,15.2C228.6,110.8,225.6,112.2,222.7,110.6z"/>
	<path fill="#07A58E" d="M346.7,266.8c3.2-2.3,2.6-6.6,4.9-9.4c1.2-1.3,2.2-2.8,3.2-4.2c1.3,1.5,0.6,3.1,0.4,4.7
		c-0.2,1.7-0.4,3.4,1.4,4.3c1.7,0.9,3.2-0.2,4.5-1.3c2.6-2.3,4.8-5,7.1-7.5c2.4-2.6,4-6.4,8.4-6.7c-3.5,5.8-8.5,10.4-12.7,15.7
		c-1.1,1.4-2.9,2.3-2.8,4.4c-2,5-5.4,8.5-10.7,9.9c-5-1-5.6-1.8-4.8-6.6C346,269.2,346.4,268,346.7,266.8z"/>
	<path fill="#6D9A2A" d="M357.7,218.6c-2.1,14.5-5.6,28.6-12.9,41.5c-2.1-3.2-1.5-6.8-1-10.1c1.4-9.1,4.6-17.7,6.8-26.6
		C351.7,219,353.9,218,357.7,218.6z"/>
	<path fill="#0EA512" d="M242.2,142.7c-10-3.7-16-10.9-18.7-21c2.5-2,5.3-1.4,8.1-0.9c3.8,4.9,8,9.5,12.3,14.1
		C244,137.6,244,140.3,242.2,142.7z"/>
	<path fill="#2195C1" d="M314.9,331.2c3.1-3.8,3.1-3.8,6.8-1.4c1.2-7.5-0.7-14.9,1-22.1c1.9,1.4,1.4,3.5,1.5,5.4
		c0.1,4.8-0.1,9.7,0.1,14.7c1.6-0.2,1.6-2.4,3.2-2.1c1.7,2.1,1.7,4.8,1.9,7.2c0.3,3.9,1.1,7.7,2.3,11.4c0.3,2.6-0.7,4.3-3.3,5.1
		C324,343.3,319.4,337.2,314.9,331.2z"/>
	<path fill="#A92F3C" d="M315.5,453.8c3,2.8,4.8,6.9,9,8.6c3.8,1.6,7.7,3.2,11.5,0.9c3.8-2.2,4.7-6,4.2-10.2
		c-0.7-5-0.2-10.2-2.8-14.8c-2.6-0.9-2-3.3-2.5-5.3c-0.3-4.4-3-8.2-3.8-12.5c-0.3-1.7-1.5-3.4,0.1-5.1c8.1,12.7,13.1,26.3,11.7,41.7
		c-0.4,3.9-3.9,7.8-8.4,8.3C325.9,466.3,318.5,464.4,315.5,453.8z"/>
	<path fill="#2D4472" d="M109.6,100c-3.6-2-7.5-3.5-10.8-6.1c0.5-5.4,2.3-10.6,1.5-16.1c0.3-1.2,1.2-1.4,2.3-1.4
		c3.4,1.9,6.5,4.1,9.1,7.1c-3.3,4.4-3.8,8.3,1.7,11.4c0.5,0.3,0.5,1,0.5,1.7C113.2,98.5,112.2,100.3,109.6,100z"/>
	<path fill="#2F48A7" d="M394.9,252.5c1.3-0.4,2.5-0.7,3.8-1.1c-8.2,11.4-17.8,21.6-28.3,30.9c-5.3,4.7-9.4,10.4-13.5,16.1
		c-0.9,0.1-1.7,0-2.3-0.8c0.4-4.9,4.2-7.9,7.1-11.2c4-4.6,8.4-9.1,12.4-13.7c2.9-2.7,5.6-5.5,8.4-8.3c3-2.7,5.5-5.9,8.2-8.9
		C391.7,254.1,392.8,252.5,394.9,252.5z"/>
	<path fill="#985701" d="M198.7,212.4c-3.3,2.2-6,2.2-7.4-2.2c-0.1-0.4-0.5-0.8-0.6-1.2c-0.5-2.6-5-5-3.2-6.7
		c3.1-3,6.8-6.6,12.2-5.3c1.7,1.5,2.7,3.5,3.7,5.5c0.1,0.5,0,1-0.4,1.2c-3.6,1.2-4.7,3.6-3.5,7.2
		C199.7,211.3,199.2,211.9,198.7,212.4z"/>
	<path fill="#D5AB2E" d="M341.2,343.5c1.9,3.4,6.4,6.2,5.7,9.6c-0.6,3-4.8,5.4-7.4,8.1c-0.6-0.5-1.2-1.1-1.8-1.6
		c-1.3-2.3-3.6-3.7-5.1-5.9c-2.3-3.2-0.9-5.5,1.8-7.5C336.7,345.3,338.4,343,341.2,343.5z"/>
	<path fill="#2098C3" d="M376.6,370.5c-0.5-0.3-1-0.6-1.5-0.9c-11.8-6.4-7.4-6.3-2.4-15.4c1-1.9,2.1-1.1,3.2-0.1
		c2.3,2.1,4.6,4.3,6.9,6.4C381.2,364.1,380.2,368.1,376.6,370.5z"/>
	<path fill="#33517D" d="M153.5,141.3c0.8,0.9,2.9,1,1.9,2.9c-1,1.7-2.4,1.3-3.9,0.6c-1.7-0.8-3-2-3.7-3.7
		c-4.1-9.9-9.7-18.9-17.4-26.4c-0.2-1.2,0.4-2,1.4-2.6c2.6-0.1,4.6,1.9,7.2,1.8c4.7,7.4,6.6,16.3,12,23.3
		C149.2,140.2,151.8,140.4,153.5,141.3z"/>
	<path fill="#050508" d="M354.9,297.5c0.8,0,1.6,0.1,2.1,0.9c-1.4,2.1-2.7,4.3-3.2,6.8c0.2,4.8,0,9.6,0.3,14.4
		c-0.1,4.1,0.6,8.1,1,12.2c0,1.1-0.3,2.1-0.9,3c-0.1,1.2-0.1,2.4-0.2,3.7c-3.8,0.1-7,3.9-11.1,2.1c0.5-2.3,2.6-2.8,4.2-3.7
		c2.6-1.4,3.4-3.2,2.2-5.9c-1.1-2.4-1.1-5-1.2-7.5c0-2.5,0-4.9,0-7.4c0.3-5.7,1.3-11.3,3.9-16.5
		C352.8,298.6,353.3,297.3,354.9,297.5z"/>
	<path fill="#92F68C" d="M317.8,250.8c0.8,1.5-0.4,2.9-0.2,4.4c-6.1-8.7-12.2-17.4-18.4-26.1c-3.4-4.8-6.9-9.4-10.4-14.1
		c0.6-1.6,1.2-3.2,3.5-2.6c7.5,11.8,15.1,23.5,22.7,35.3C315.7,248.8,316,250.6,317.8,250.8z"/>
	<path fill="#EE2617" d="M50.9,100.7c2-2.9,3.7-6.5,7.9-2.5c2.8,0.4,2.9,2.9,3.8,4.8c0.8,4,3.2,7.4,3.8,11.4
		c0.1,3.3-0.9,4.5-4.3,2.6c-2.2-1.3-3.8-2.8-5-5c-1.6-2.9-2.1-6.4-4.9-8.5C51.8,102.6,51.3,101.7,50.9,100.7z"/>
	<path fill="#371757" d="M360,383.6c-0.6-0.5-1.2-1-1.7-1.5c-1.8-1.8-3.4-3.8-5.3-5.5c-1.8-1.6-1.3-2.7,0.4-3.9
		c0.6-0.4,1.2-1,1.7-1.5c4.5-4.3,6.5-4.1,10.4,1c1.3,1.7,1.3,3.2,0.2,4.9C364.3,379.7,362.3,381.7,360,383.6z"/>
	<path fill="#0A1CBD" d="M373.8,380.3c-5.2-1.6-5.3-2.6-1.2-8.8c3,1.3,6.1,2.6,9,4c2.4,1.2,3.5,2.9,2.3,5.8c-1.3,3-1.8,6.3-2.8,9.5
		c-0.4,1.2-0.6,3.2-2.2,3c-2.2-0.3-1.1-2.3-1.2-3.7c0.2-1.8,0-3.6,0.5-5.3c0.2-1.5-0.4-2.5-1.8-3.1
		C375.4,381.4,374.5,381.1,373.8,380.3z"/>
	<path fill="#F25D0B" d="M357.7,218.6c-3.7-0.1-5.6,2.5-6.2,5.5c-2.5,12-7.8,23.4-6.7,36.1c-1.4,4.1-0.9,8.2-0.5,12.4l-0.2,0.3
		c-2.6-0.6-1.8-2.8-1.9-4.4c-1-12.5,0.7-24.6,5-36.4c0.7-2,1-4.1,1.5-6.1c1.9-8.1,4.6-10,12.4-9.1
		C360.6,218.6,358.7,217.7,357.7,218.6z"/>
	<path fill="#092457" d="M100.7,77.1c1.8,5.9,1.2,11.4-1.9,16.7c-1.8-0.9-3.5-1.7-5.3-2.6c0-0.4,0-0.7-0.1-1.1
		c1.1-4.9-0.5-9.4-2.2-13.9c-0.4-1.2-1.4-2.6-0.2-3.7c1.1-1,2.6-0.6,3.8-0.2C97.5,73.2,99.8,74.3,100.7,77.1z"/>
	<path fill="#0A3FAA" d="M100.7,77.1c-2.5-2.5-5.3-4.2-9.5-4.4c1.5,4.2,3.3,8.1,3.8,12.4c0.2,1.9,1,4-1.6,5c-2-2.5-1.6-6-3.7-8.5
		c0.1-4.8-2.6-8.4-4.8-12.3c-0.5-0.9-1.4-1.9-0.7-2.8c0.8-1,1.9-0.2,2.9,0.1c6,1.9,10.9,5.4,15.4,9.7
		C102.1,77,101.4,77.1,100.7,77.1z"/>
	<path fill="#5065EE" d="M437,172.1c-9.3,0-18.7,0-28,0c0-0.3-0.7-0.9,0.2-0.9c6.6-0.3,13.2-0.1,18.1-0.2c-8.5-0.7-18.7,1-28.9-0.3
		c-1.6-2,0.3-1.9,1.3-1.9c14.9-0.1,29.7-0.2,44.6-0.3c0.8,0,2-0.1,2.1,1.1c0.1,1.4-1.1,1.6-2.2,1.7C441.7,171.5,439.3,171,437,172.1
		z"/>
	<path fill="#F3F517" d="M219.7,207c1.9,0.2,3.1-0.7,3.6-2.5c0.1-0.2,0.1-0.5,0.2-0.7c1.9-1.8,3.9-3.8,6.6-2.5
		c2.7,1.3,3.8,4.2,4.5,6.9c0.8,3.4-2.3,4.1-4.5,5.1c-0.4,0.2-0.8,0.3-1.2,0.5c-6.6,2.7-6.7,2.7-10.8-3.4
		C217.8,208.9,217.9,207.5,219.7,207z"/>
	<path fill="#11A517" d="M248.9,83.3c5.2-1.6,10.2-0.4,15.2,1.3c1.8,2.7,1.6,5.6,0.5,8.5c-0.5,0.7-1.2,0.9-1.9,0.7
		c-4.4-1.1-9-1.4-13.4-2.1C247.8,89,248.1,86.2,248.9,83.3z"/>
	<path fill="#AD1808" d="M331.3,415.5c0.7,5.1,2.6,9.9,4.5,14.6c0.4,0.9,1.3,1.8,0,2.8c-1.1,0.7-1.8-0.1-2.6-0.8
		c-3.3-2.5-2.9-6.5-3.6-9.7c-1.9-9.8-5.1-19-11-27.1c-1.6-2.1-0.5-2.9,1.6-3.3C324.9,399.4,327.8,407.6,331.3,415.5z"/>
	<path fill="#B91218" d="M292.2,349.4c0.1-1.5-1.3-2.3-1.8-3.5c-2.8-2.2-4-5.6-6.1-8.3c-0.8-1.8-1.9-3.9,0.5-5.1c2-1,3.4,0.6,4.6,2
		c3.7,4.5,6.4,9.5,8.5,14.9c-0.9,2,0.8,3.1,1.6,4.5c0.9,1.5,0.1,2.1-1.3,2.4C294.7,355.2,294.9,351,292.2,349.4z"/>
	<path fill="#FA9287" d="M189.6,180.1c0-2.7,4.5-7,7.1-7.1c1.2-0.1,6.1,7.3,5.3,8.6c-1.7,2.9-5,4.9-8,4.9
		C190.3,186.6,190.5,182.4,189.6,180.1z"/>
	<path fill="#0FA514" d="M284.5,117.3c-0.7,7.4-3.6,13.8-9.3,18.8c-3.1-3.8-1-8.2-1.5-12.3c0.2-2.5,0.5-5,2.1-7.2
		C278.8,115.5,281.8,114.9,284.5,117.3z"/>
	<path fill="#818DFD" d="M379.2,384.7c-0.3,1.9-0.3,3.9-1.7,5.5c-2.4,2.6-4.9,4.8-8.8,2.4c-1.9-1.1-2.8-2.6-2-4.5
		c1.4-3.3,2.6-7.1,7-7.8c1.1-0.3,2-0.1,2.9,0.7c0.1-0.6,0,1-0.2,0.4c0,0-0.3,0.1-0.4,0.1C377.6,382.1,378.4,383.4,379.2,384.7z"/>
	<path fill="#0719BA" d="M292.3,212.4c-1.2,0.9-2.4,1.7-3.5,2.6c-2.4-2.9-4.7-5.9-7.1-8.8c1.1-3.8,3.3-6.7,6.4-9.1
		c0.8,1.4,1.6,2.9,2.3,4.3c2.5,1.6,4.3,3.6,4.6,6.7C294.4,209.8,292,210.2,292.3,212.4z"/>
	<path fill="#35ACD8" d="M389.8,337.5c2.4,4,5.3,3.3,8.6,1c2.6-1.8,5.4-3.2,8.1-4.8c1.3,1.8,0.2,2.8-1.3,3.5
		c-1.1,0.5-2.1,1.3-3.1,1.6c-7.1,2.6-8.4,9-10.3,15c-0.5,1.7-1.3,3.2-2.1,5.5c-1.9-3-3.5-5.5-5.1-8c1.8-1.2,2.9,1,4.4,1.1
		c2.4-5,2.3-5.3-2.5-8.2c-1.2-0.7-2.8-1.2-3.1-2.9c0-0.4,0.2-0.8,0.5-1.1c1,0.1,2.1,0,3,0.4C390.6,342,390.9,340.4,389.8,337.5z"/>
	<path fill="#0FA415" d="M272.4,89.2c5.6,3.9,9.3,9.2,10.8,15.9c-2.4,1.9-5.2,2.1-8.1,1.6c-2.3-1.9-3.6-4.4-4.1-7.4
		C271.2,95.9,269.8,92.3,272.4,89.2z"/>
	<path fill="#FECE10" d="M299.4,196.3c0.1,0,0.3-0.1,0.4-0.1c6.9-3.3,8.1-2.6,10.3,5.1c1,3.5-0.5,5.6-3.5,6.7
		c-3.3,1.2-2.9-2.1-4-3.6c-0.4-0.5-0.7-1-1.1-1.4C299.5,201.1,298.1,199.1,299.4,196.3z"/>
	<path fill="#E78E19" d="M219.7,207c-0.8,0.9-1.2,2-1.1,3.2c-2,3.4-4.7,4.9-8.6,3.1c-1.7-1.3-1.9-3.6-3.2-5.2
		c-0.4-0.4-0.4-0.8,0.1-1.1c1.2-2.9,3.9-4,6.4-5.3C216,200.4,218.5,202.6,219.7,207z"/>
	<path fill="#32132C" d="M33.6,342c-1.2-0.3-2.4-0.5-3.6-0.8c-0.7-0.6-1.4-1.1-2.1-1.7c0.1-0.7,0.4-1.2,0.9-1.7
		c0.5-0.4,1-0.7,1.5-0.9c5.3-2.1,5.3-2.1,4-7.9c-0.1-0.4-0.1-0.9,0.1-1.3c7.3,0.9,8.4,2,8.2,8.3C42.5,340.7,41.9,341.1,33.6,342z"/>
	<path fill="#071BB9" d="M274.5,123.5c0.2,4.2,0.4,8.4,0.7,12.6c-2.8,3.2-6.3,5.4-10.4,6.7c-1.7-2.3-1.1-4.9-1-7.4
		C266.4,130.5,270.7,127.2,274.5,123.5z"/>
	<path fill="#12A518" d="M265,133.9c-0.1,3-0.1,5.9-0.2,8.9c-4,1.8-8.1,2.6-12.5,2.2c-2-2.5-1.6-5.1-0.6-7.7
		C255.8,134.8,260.3,133.9,265,133.9z"/>
	<path fill="#DDF256" d="M460.7,265.5c-1.9,2-3.8,4-5.7,6c-0.9,0.4-1.9,1.7-2.6-0.2c0-2.1-0.8-3.3-3.2-3.4c-1.4-0.1-3.5,0.4-3.8-2.1
		c3.1-3.2,6.2-6.5,7.9-10.8c1.6-1,2.5-0.5,2.9,1.3c0.2,0.9-0.2,1.8-0.3,2.7c-0.2,1.1-0.3,2.2,0.9,2.8c1.2,0.6,1.9-0.5,2.6-1.3
		c0.6-0.7,0.9-1.5,1.7-2.1c0.7-0.2,1.3-0.3,1.7,0.4C462.3,261.1,460.2,262.9,460.7,265.5z"/>
	<path fill="#FC580B" d="M360.2,215.2c-3.7-1.3-5.7-4.4-6.1-7.8c-1.2-10.7,1.4-20.9,6.7-30.3c0.6-1,1.2-3.1,3.3-2.1
		c-3.2,6.3-6.2,12.7-7.1,19.9c1.4,3.6,0.7,7.3,1,10.9c0.1,1.9,0.3,3.8,1.2,5.6C359,212.9,362.5,213.3,360.2,215.2z"/>
	<path fill="#0719BA" d="M337.6,384.1c-1.9-2.8-3.8-5.7-5.6-8.5c-0.2-3.8,3.3-4.4,5.5-6.2c2.8,2.5,5.5,5.2,7.4,8.5
		C343.9,381.6,340.9,383,337.6,384.1z"/>
	<path fill="#D41729" d="M52.2,103.5c1.3,0.2,2.4,1,2.7,2.1c1.7,5.3,4.3,9.7,10.2,11.4c0.1-0.8,0.2-1.8,0.3-2.8
		c0.4-0.2,0.8-0.1,1.2,0.2c1,2.2,1.4,4.6,2.2,6.8c-0.8,3-0.4,5.7,1.8,8.1c0.9,1,1.9,2.4,1.2,4c-1.3-0.3-2.5-0.6-3.8-0.9
		C62.2,123.1,57,113.4,52.2,103.5z"/>
	<path fill="#0A1DBC" d="M275.3,106.2c2.7-0.4,5.3-0.7,8-1.1c1.6,3.9,2.1,8,1.2,12.2c-2.7-0.1-5.4-0.3-8.1-0.4
		C275.3,113.4,274,110,275.3,106.2z"/>
	<path fill="#122F36" d="M232,121.6c-2.8,0-5.6,0-8.5,0c-1-3.6-1.7-7.3-0.8-11.1c2.7,0,5.5-1.7,8.2,0
		C232.1,114.2,233.3,117.8,232,121.6z"/>
	<path fill="#8C2345" d="M353.2,319.7c-1-4.9-0.8-9.7,0.6-14.5c0.6,1.9,0.6,4.7,3.8,2.6c1.1,2.8,5.1,2.8,5.9,5.9
		c-0.8,0.7-1.6,1.5-2.3,2.2c-0.5,0.6-0.8,1.3-1.6,1.5c-1.5,1.1-2.9,2.1-4.4,3.2C354.1,321,353.6,320.4,353.2,319.7z"/>
	<path fill="#C02A3A" d="M80.3,144.3c7.5,0.5,11.5,6.5,16.1,11.1c2.7,2.7,5.2,6.1,6.1,10.2C94.6,159,87.1,152.1,80.3,144.3z"/>
	<path fill="#101645" d="M383.8,341.2c0.6,0.4,1.2,0.9,1.8,1.2c8.4,4.5,7,3.3,4.3,11.6c-2.2-0.1-3.4-2.1-5.3-2.7
		c-1.4-1.9-2.9-3.9-4.3-5.8C379.1,342.1,380.7,341,383.8,341.2z"/>
	<path fill="#2735A0" d="M216.2,194.2c-1.4-2.5-4.9-4.8-3.1-7.8c1.9-3.2,5.9-2.3,9.1-2c0.3,0,0.6,0.1,0.9,0.2
		c1.3,0.4,3.2-0.4,3.6,1.8c0.3,1.7-0.3,3.1-1.7,3.8C222.2,191.8,219.6,194,216.2,194.2z"/>
	<path fill="#0D6BB6" d="M113.5,96.1c-0.4-0.4-0.8-1-1.2-1.3c-6.8-5-6.8-5-0.6-11.3c2.9,2.1,5.4,4.6,7.8,7.3c-0.6,2.6-2.7,4-4.3,5.9
		C114.5,96.7,113.9,96.7,113.5,96.1z"/>
	<path fill="#DC26A4" d="M461.3,258.6c-0.1,0.6-0.2,1.2-0.4,1.7c-1,1.9-2.9,3.9-4.5,3.4c-1.9-0.7-2.7-3.3-1.6-5.7
		c0.7-1.6,0.8-2.9-1.5-3c0.9-2.3,1.5-4.6,1.5-7.1c1.5-0.1,2.5,0.7,3.6,1.6C461.4,251.9,462.8,254.8,461.3,258.6z"/>
	<path fill="#1E0706" d="M148.7,160c-0.6-0.1-1.1-0.2-1.7-0.2c-0.9,5-1.9,5.5-5.5,2.6c-2.5-2.3-4.9-4.7-7.4-7
		c2.2-0.8,4.4-1.5,6.6-2.3c1-0.9,2.1-1.5,3.5-0.9C145.7,154.9,147.2,157.4,148.7,160z"/>
	<path fill="#0F2E34" d="M252.2,136.9c0,2.7,0.1,5.4,0.1,8c-3.5-0.1-7-0.5-10.1-2.3c0.3-2.8,0.6-5.5,0.8-8.3
		C246.6,133.7,249.6,134.7,252.2,136.9z"/>
	<path fill="#061ABB" d="M272.4,89.2c-0.1,3.6-0.2,7.1-0.4,10.7c-3.6-1.2-6.3-3.5-8.3-6.7c0.1-2.9,0.2-5.7,0.3-8.6
		C267.2,85.5,270,86.9,272.4,89.2z"/>
	<path fill="#0E2A33" d="M248.9,83.3c1.5,2.5,0.4,5.3,0.9,7.9c-2.3,2.5-5.2,3.4-8.5,3.1c-1.7-2.7-0.5-5.7-0.9-8.5
		C243,84.3,245.8,83.4,248.9,83.3z"/>
	<path fill="#8CF7EE" d="M342.3,365c3.6-0.3,4.4-3.8,6.5-5.8c1.1-1,1.5-2.7,3.3-2.8c1.1,1.6,2.2,3.3,3.3,4.9c-1.1,4.3-5.4,5.9-7.9,9
		C345.8,368.6,344,366.8,342.3,365z"/>
	<path fill="#030306" d="M288.1,197.1c-1.6,3.4-4,6.3-6.4,9.1c-1.9-2.3-3.9-4.5-5.8-6.8c1.3-3.7,4.3-4.6,7.8-4.5
		C285.3,195.3,287.1,195.4,288.1,197.1z"/>
	<path fill="#202874" d="M324.1,363.9c-0.7-1.5-1.4-2.9-2.2-4.4c0.6-1.9,1.8-3.2,3.8-3.7c3.2,3.6,6.5,7.3,9.7,10.9
		c-1.9,1.4-4.2,1.6-6.4,2.1C326.7,367.9,325.3,366,324.1,363.9z"/>
	<path fill="#6C1728" d="M397,371.9c-2,2.1-1,6.2-4.3,6.7c-1.9,0.3-5.4-0.1-5.2-3.5c0.2-2.7,0.8-6.1,4.1-6.7
		C393.8,368,395.6,369.8,397,371.9z"/>
	<path fill="#A9AC24" d="M129.1,151.4c-1.6,1.3-3.2,2.6-4.8,3.9c-0.7,2.3-2,3.3-3.5,0.8c-1.4-2.4-3.1-4.8-2.5-7.8
		c0.9-1.8,2-3.4,4.4-3.1C125.8,146.1,128.6,147.5,129.1,151.4z"/>
	<path fill="#FCE130" d="M134.4,142.4c-3.4-6.6-6.9-13.1-11.7-18.9c5.5,2.6,8.7,7.5,13.3,11.1c1.6,1.2-0.2,2.8,0.1,4.2
		C135.1,139.8,137.2,142.2,134.4,142.4z"/>
	<path fill="#C9348E" d="M299.4,196.3c-0.2,2.5,1.8,4.3,2.1,6.7c-2.2,1.7-4.4,3.4-6.5,5.1c-1.5-2.2-3-4.4-4.6-6.7
		C293.9,200.6,295.6,196.6,299.4,196.3z"/>
	<path fill="#391B5B" d="M337.6,384.1c2.4-2.1,4.8-4.2,7.2-6.2c1.1,1,2.3,1.9,3.4,2.9c0.5,0.5,1.4,1.3,0.9,1.8
		c-2.2,2-4.3,4.6-6.9,5.6C340.5,388.7,338.2,386.5,337.6,384.1z"/>
	<path fill="#D24BBA" d="M216.2,194.2c2.1-2.1,4.9-2.9,7.4-4.2c1.2-0.7,2.3-1.1,2.4-2.9c0.2-2.4-1.9-1.8-2.9-2.6
		c1.5,0.1,3.1,0.2,4.6,0.2c2.6,2.7,2.6,4.7-1.3,6.1c-1.5,0.5-2.8,1.7-4.2,2.5c-3.3,1.7-3.9,3.7-0.8,6.2c1.9,0.9,2.8,2.3,2.3,4.5
		c0,0.2-0.1,0.3-0.3,0.3C219.5,202.1,218,198.1,216.2,194.2z"/>
	<path fill="#091CBC" d="M324.1,363.9c2.3,0.9,3.7,2.5,4.5,4.8c0.6,0.8,0.7,1.6-0.1,2.4c-1.4,0.7-2.8,1.3-4.3,2
		c-0.7,0.5-1.5,0.4-2.2-0.1C317.9,367.6,318.3,365.7,324.1,363.9z"/>
	<path fill="#202671" d="M354.1,334.8c0-0.9-0.1-1.8-0.1-2.7c1.9-1,3.1-3.1,5.4-3.5c2.2,2.4,4.1,5.1,5.7,7.9
		c-2.8,2.8-5.3,3.2-7.8-0.4C356.6,335,355.4,334.8,354.1,334.8z"/>
	<path fill="#9DC148" d="M206.9,207c0,0.4,0,0.7-0.1,1.1c-2.5,1.8-5.1,3.4-8.1,4.2c0-0.3,0.1-0.6,0-0.9c-2.9-5.3,0-7.7,4.7-9
		C204.6,204,205.7,205.5,206.9,207z"/>
	<path fill="#CB3E77" d="M57.1,139.8c0.4,1.9,0.9,3.8,1.2,5.7c0.7,6.1,2.6,11.1,11.4,10.5c-3.4,1.8-5.5,1-7.5,1
		c-6.1-0.1-6.7-0.8-5.6-6.5c0.5-2.8-0.1-5.3-0.5-8C56.1,141.5,54.9,140,57.1,139.8z"/>
	<path fill="#D5293B" d="M297.8,355.7c1.2,0,1.6-0.8,1.7-1.8c3.9,7.2,7.9,14.5,11.8,21.7c0,1-0.1,2-0.1,3c-1,0.1-1.8-0.6-2.2-1.3
		c-3.9-6.8-8.4-13.1-11.4-20.4C297.4,356.4,297.5,356,297.8,355.7z"/>
	<path fill="#16699F" d="M310.5,336.5c3.5,4.1,7,8.1,9.8,12.8c-0.8,1.3-1.8,2.4-3.6,1.9c-2.4-3.1-4.6-6.4-6.4-10
		C309.9,339.7,308.9,338,310.5,336.5z"/>
	<path fill="#1C8B5D" d="M113.5,96.1c0.5,0,1.1,0,1.6,0c2.8-0.3,3.7,2,5.1,3.6c0.2,0.4,0.3,0.9,0.3,1.3c-0.2,2.3-1.5,3.8-3.7,4.5
		c-2.7-1.5-5.1-3.4-7.3-5.5C111.2,99,112.6,97.7,113.5,96.1z"/>
	<path fill="#D61728" d="M122.6,145.1c-1.2,1-2.5,2-3.7,2.9c-0.3,0.3-0.7,0.3-1.2,0.2c-2.2-1.3-3.1-3.9-5.1-5.4
		c-1.1-1.5-3.3-2.5-2-4.9c0.8,0.4,1.8,1.2,2.2,1c1-0.5,0.4-1.8,0.5-2.7C116.5,139.2,119.5,142.1,122.6,145.1z"/>
	<path fill="#3D6F1E" d="M16.5,330.4c1.4-2,0.4-4.3,0.8-6.5c0.9-1.9-0.1-4.4,2.1-5.9c3.6-1.1,4.3-0.7,4,2.8c-0.1,1-0.2,2.1-0.2,3.1
		c-0.3,1.6,0.7,3.2,0.2,4.8c-1.7,1.2-4.5,1.2-4.9,4.1C17.8,332,17.2,331.2,16.5,330.4z"/>
	<path fill="#1536BD" d="M347.5,370.4c1.5-4,5.5-5.8,7.9-9c1.8-0.1,3.5-0.2,5.3-0.2c-2.6,4.2-6.9,6.5-10.3,9.8
		C349.1,372.1,348.2,371.4,347.5,370.4z"/>
	<path fill="#529CE2" d="M328.4,371.1c0-0.8,0.1-1.6,0.1-2.4c2.1-1.5,4.2-2.8,6.9-1.9c0.9,0.7,1.9,1.2,2,2.5
		c-0.3,3.4-4.5,3.4-5.5,6.2C330.2,374.5,329.9,372.3,328.4,371.1z"/>
	<path fill="#0B1EBB" d="M316.6,351.2c1.2-0.6,2.4-1.3,3.6-1.9c2.3,1.8,4.1,4,5.5,6.5c-1,1.5-2.3,2.8-3.8,3.7
		C319.8,357,318.1,354.2,316.6,351.2z"/>
	<path fill="#8893FA" d="M283.6,194.9c-3.1,0.6-5.4,2.7-7.8,4.5c-2.3-2.5-4.6-4.9-7.7-8.2C274.1,192.2,278.9,193.4,283.6,194.9z"/>
	<path fill="#091AB6" d="M359.4,328.6c-1.7,1.3-2.2,4.6-5.4,3.5c-1.1-4.1-1.3-8.2-0.9-12.4c0.6,0.3,1.3,0.6,1.9,1
		C355.5,323.9,358.5,325.7,359.4,328.6z"/>
	<path fill="#0E20BE" d="M322,373c0.7,0,1.4,0,2.2,0.1c-0.9,1.5,0.2,2.6,1,3.5c2.3,2.6,1.5,3.6-1.4,5c-2.2,1-3.3,1.3-4.6-0.9
		c-1.2-2-1.1-3.6,0.9-5C321,375.1,323,375,322,373z"/>
	<path fill="#81F2F0" d="M376.6,370.5c2.3-3.2,2.8-7.5,6.2-10c1.5,0.5,2.8,1.3,3.8,2.5c-0.1,0.2-0.2,0.4-0.3,0.5
		c-2.9,2.3-3.6,5.7-4.5,8.9c-0.2,0.4-0.5,0.6-0.9,0.8C379.2,372.7,377.7,371.9,376.6,370.5z"/>
	<path fill="#7A9B2F" d="M359.2,211.5c-3.4-2.6-2.5-6.4-2.5-9.9c-0.1-2.2,0.2-4.4,0.3-6.7c3.7,2.8,3.4,6.8,3.1,10.7
		C359.9,207.6,359.5,209.6,359.2,211.5z"/>
	<path fill="#C58A26" d="M131.6,112.5c-0.4,0.7-0.9,1.4-1.3,2.2c-2.3-1.9-4.6-3.8-6.9-5.7c-0.6-2.2,1.2-3,2.5-4.1
		c0.6-0.3,1.3-0.3,1.9-0.1c1.6,0.7,2.6,2.1,3.6,3.5C132.1,109.7,133.8,111,131.6,112.5z"/>
	<path fill="#171516" d="M22.7,329.3c0-1.8,0.1-3.5,0.1-5.3c0.2-0.5,0.5-0.5,0.8-0.1c0.1,0.9-0.2,2,0.7,2.7c2.1,1.7,0.8,4.6,2.5,6.5
		c0.9,1.7,2.5,3,2.4,5.2c-0.4,0.4-0.8,0.8-1.2,1.2c-3.4-1-6.1-3-8.4-5.8C20.8,332.4,21.5,330.7,22.7,329.3z"/>
	<path fill="#4BE5DE" d="M388.9,382.9c1.9,0.3,3.5,0.7,2.8,2.2c-1.1,2.5,0.2,6.2-3.2,7.5c-0.8,0.3-3.1,0-2.4-2.1
		C386.9,387.9,386.5,384.7,388.9,382.9z"/>
	<path fill="#344772" d="M126.3,105.4c-1,1.2-1.9,2.4-2.9,3.6c-2.3-0.9-4.5-2-6.5-3.5c0.7-1.8,2.9-2.6,3-4.8
		C122.9,101.1,125,102.7,126.3,105.4z"/>
	<path fill="#324874" d="M119.7,99.8c-1.5-1.3-3-2.5-4.5-3.8c0.6-2.5,2.7-3.8,4.4-5.4c1.3,0.9,2.5,2,3.2,3.4
		C123.1,96.7,121.8,98.5,119.7,99.8z"/>
	<path fill="#92932F" d="M131.6,112.5c1.1-1.5-0.5-2.5-0.8-3.7c0.7-1.1,1.5-2.1,2.8-2.4c2.5,2,4,4.7,5.3,7.5
		C135.8,116.9,134.1,112.7,131.6,112.5z"/>
	<path fill="#BE2D39" d="M119.7,99.8c1-1.9,2-3.8,3.1-5.8c0.9,0.4,1.5,1.1,1.8,2c-0.1,1.5-1.5,3.1-0.1,4.5c1.2,1.2,2.4-0.3,3.6-0.5
		c0.9,0.5,1.6,1.3,2,2.3c-0.2,1.3-0.6,2.5-2,3c-0.6,0-1.1,0-1.7,0.1c-2.1-1.6-4.3-3.1-6.4-4.7C119.9,100.4,119.8,100.1,119.7,99.8z"
		/>
	<path fill="#C8CEF6" d="M398.3,170.7c10.5,0,21.1,0,31.6,0c0,0.5,0,0.9,0,1.4c-7,0-14,0-21,0c-1.7,0.1-3.4,0.1-5.2,0.2
		C402.4,170.6,399.9,172.4,398.3,170.7z"/>
	<path fill="#286477" d="M344.1,272.8c0,0,0.2-0.3,0.2-0.3c0.4-0.8,0.4-1.8,1.3-2.2c-0.3,4.2,1.9,5.8,5.8,5.7
		c-1.4,3.2-3,6.3-6.8,7.1c-0.6-0.7-0.6-1.6-0.6-2.5c0.8-2.3-1.2-4.4-0.2-6.7C344,273.6,344,273.2,344.1,272.8z"/>
	<path fill="#88EAEA" d="M386.6,362.9c2.2,2.6,1,10.9-2,12c-1.5,0.6-2.7-0.7-3.7-1.8c0.1-0.1,0.2-0.2,0.4-0.3
		c2.7-2.7,3.4-6.4,5.1-9.6L386.6,362.9z"/>
	<path fill="#DB3D4D" d="M72.6,147c0.6-0.3,1.2-0.6,1.7-0.9c0.5,4.8-1.9,10.3,3.2,14.4c-2.5-1.7-7.2-1-5.1-6.3
		C73.2,152,72.6,149.4,72.6,147z"/>
	<path fill="#C54816" d="M305.4,329.5c0.1,1.1-0.4,1.7-1.5,1.9c-1.5,0.3-5.4-4.3-5.5-6.5c-0.1-0.8,0-1.5,1-1.7
		C300.5,323,305.3,328.1,305.4,329.5z"/>
	<path fill="#63F477" d="M397.3,388.8c-0.6,1,0.4,3.9-2.2,3.6c-2.3-0.2-2-2.7-1.9-4.4c0.1-1.3-0.1-3.1,1.8-3
		C396.8,385,397.8,386.3,397.3,388.8z"/>
	<path fill="#A41B46" d="M87.1,174c1.5,3.9,2.8,7.9,3,13c-3.6-3.5-2.9-8.2-5.6-11.2c0.2-0.5,0.5-0.9,0.7-1.4c-0.4-1,0.1-1.2,1-1
		C86.3,173.8,86.6,174.2,87.1,174z"/>
	<path fill="#40499A" d="M368.6,326.5c2.1,3.1,7.1,4.5,5.8,10.2c-3.2-2.8-5-6-7-9.1C367.3,326.7,367.7,326.3,368.6,326.5z"/>
	<path fill="#7B2D39" d="M128,100c-0.6,2.6-2.6,3.4-4.3,2c-2.3-1.9-1.7-4.2,0.8-5.9C126,97.1,127.2,98.4,128,100z"/>
	<path fill="#D3D3D3" d="M475.6,265c0.6-1.5,2.6-0.5,3.3-1.8c5.2,0.6,10.6,0.5,15.3,3.5C488,265.7,481.9,264.6,475.6,265z"/>
	<path fill="#0516A8" d="M434.8,297.3c-0.6,0.4-1.2,1.1-1.8,1.1c-2,0.3-3.5-0.7-4.3-2.4c-0.5-1.3,0.2-2.4,1.4-2.8
		c1.9-0.6,3.1,0.4,3.9,2.1C434.3,295.9,434.5,296.7,434.8,297.3C434.8,297.4,434.8,297.3,434.8,297.3z"/>
	<path fill="#EBD360" d="M346.8,168.5c0-4.4-0.1-7.5,0-10.6c0-0.9,0.6-1.8,1.7-1.6c1,0.2,0.9,1.1,1,1.8
		C349.6,161.4,348.8,164.4,346.8,168.5z"/>
	<path fill="#44B7DD" d="M383.8,341.2c-1.9,0.8-4.2,1.3-3.6,4.2c-1.2-0.6-1.6-1.7-1.8-2.9c-0.2-1.7-0.1-3.8,1.2-4.5
		c1.5-0.8,3.4,0,4.2,2C383.9,340.5,383.9,340.9,383.8,341.2z"/>
	<path fill="#09189A" d="M442.9,283.7c2.7,1,4.8,2.3,3.5,5.7c-0.8,0-1.6,0.1-2.5,0.1c-1.6-1.2-3.4-2.3-2.9-4.7
		C441.1,283.4,441.9,283.4,442.9,283.7z"/>
	<path fill="#C4C0A6" d="M178,355.6c9-1.3,18-1.3,27,0C196,355.6,187,355.6,178,355.6z"/>
	<path fill="#252F6E" d="M335.1,346.9c-2.8,1.9-3.6,4.2-1.5,7.1c-0.5,0.3-0.9,0.2-1.3-0.2c-1.2-1.6-3.1-2.6-3.8-4.6
		c0.7-1.5,2.8-2.3,2.7-4.3C333,344.4,334.1,345.5,335.1,346.9z"/>
	<path fill="#C9C30E" d="M22.7,329.3c0.3,2.4,0.2,4.5-3.1,4.4c-0.4-0.3-0.8-0.6-1.2-0.9c-0.1-1.7-1.1-3.6,0.8-4.8
		C20.7,327.2,21.6,328.6,22.7,329.3z"/>
	<path fill="#7CE5E6" d="M310.3,315.7c-1.7,1.7-3.4,3.5-2.8,6.3c-0.8-1.2-1.7-2.4-2.5-3.6c2.5-1.5,1.9-4.5,3.1-6.6
		C310,312.6,310.7,313.9,310.3,315.7z"/>
	<path fill="#F9E06E" d="M134.4,142.4c0.6-1.2,1.1-2.4,1.7-3.6c0.2,0.2,0.2,0.4,0.2,0.6c1,3.8,3.7,6.7,5,10.3c0.3,0.9,1.8,2-0.3,2.6
		C138.9,148.9,135.7,146.3,134.4,142.4z"/>
	<path fill="#525CC7" d="M368.6,326.5c-0.4,0.4-0.8,0.7-1.2,1.1c-3.2-3-4.6-7.4-8-10.2c0.5-0.5,1.1-1,1.6-1.5
		C362.9,319.9,366.4,322.8,368.6,326.5z"/>
	<path fill="#152BBF" d="M310.5,336.5c-0.1,1.6-0.1,3.2-0.2,4.8c-1.4-1.9-2.8-3.8-4-5.8c-0.5-0.9-1.9-1.9-0.3-3
		c1.4-0.9,1.7,0.5,2.3,1.3C309.1,334.6,309.7,335.6,310.5,336.5z"/>
	<path fill="#39496D" d="M128,105.3c0.5-1.1,0.9-2.3,2-3c1.7,0.9,2.6,2.5,3.6,4c-0.5,1.3-1.2,2.4-2.8,2.4
		C129.9,107.6,128.9,106.5,128,105.3z"/>
	<path fill="#E9988B" d="M140.9,152.4c0.5-3.1-1.8-5.1-3-7.5c-0.9-1.7-2.2-3.2-1.7-5.4c3.3,3.6,3.9,9.1,8,12.2c0,0.2,0,0.4,0,0.6
		c-1.2,0.3-2.3,0.6-3.5,0.9C140.7,152.9,140.7,152.6,140.9,152.4z"/>
	<path fill="#D35079" d="M86.2,173.4c-0.3,0.3-0.6,0.7-1,1c-1.5-3-3-6.1-4.4-9.1C83.9,167.2,85.7,169.9,86.2,173.4z"/>
	<path fill="#8C944F" d="M461.3,258.6c0-3.4-0.8-6.5-2.9-9.1c4.4,1.7,5.2,5.1,4.3,9.3C462.2,258.7,461.7,258.7,461.3,258.6z"/>
	<path fill="#23B3DE" d="M153.5,141.3c-3.3,1.8-4.1-1.1-4.7-3c-0.7-2,1.2-1.1,2.2-1.1C152,138.4,153.1,139.7,153.5,141.3z"/>
	<path fill="#F2E39B" d="M335.3,187.8c-0.5-3-0.8-6.1-0.2-9.8C338.1,181.6,335.6,184.7,335.3,187.8z"/>
	<path fill="#C0716C" d="M433.7,238.7c-0.3,0.3-0.7,0.7-1,1c-1.4-2.3-2.2-4.8-2.7-8.8C432.4,233.9,432.9,236.4,433.7,238.7z"/>
	<path fill="#B43425" d="M410.2,255.1c-0.7,1.1-0.4,1.7,1,1.7c-1.5,0.5-3.2,4-4.6-0.2C407.6,255.8,408.7,255.1,410.2,255.1z"/>
	<path fill="#E6A5C0" d="M57.1,139.8c-1.2,0.6-0.7,1.8-1,2.7c-1.1-2.1-1.3-4.3-1-7.4C56.5,136.9,57.1,138.3,57.1,139.8z"/>
	<path fill="#78758A" d="M332.3,353.9c0.4,0.1,0.8,0.1,1.3,0.2c1.8,1.6,3.7,3,4.2,5.6C335.8,357.8,333.6,356.3,332.3,353.9z"/>
	<path fill="#831924" d="M68.1,121.6c-1.3-2.1-2.3-4.4-1.8-7c2.4-0.6,2.7,2.1,4.2,2.9c2.9,2.4,4.3,6.3,7.9,7.9
		c0.5,0.3,1,0.8,1.3,1.3c1.2,2.7,3.6,4.4,5.6,6.4c0.7,0.6,1.4,1.2,2.2,1.5c2.2,0.8,2.8-0.1,2.3-2.2c-0.5-2.4-1.6-4.6-2.5-6.8
		c-0.5-1.3-1.2-2.5-1.7-3.7c-0.8-1.8-1.9-3.8-0.5-5.5c1.7-2.1,3.6-0.1,5.3,0.3c3.9,4.9,6.7,10.5,9.2,16.2c1,2.5,1.9,5,3.2,7.3
		c0.2,0.4,0.3,0.8,0.3,1.2c0.2,2.8,0.5,5.6,0.3,8.4c-0.3,4.3,3.1,6.8,5.3,9.9c3.5,4.3,7.6,8,11,12.4c0.9,1.2,2.2,2.1,2.4,3.7
		c-0.1,2-1.5,2.5-3.2,2.7c-1.5-1.2-3.1-2.3-4.6-3.5c0-2.6-1.6-4.1-3.5-5.5c-6-6.2-10.9-13.1-15.4-20.4c-2.8-4.5-7.8-6.4-11.9-9.4
		C76.7,135.1,71.5,129.1,68.1,121.6z"/>
	<path fill="#D4BB3D" d="M187.8,276.8c0.5,5.5,4.1,10.1,4.8,15.6c-0.8,0.6-1.6,0.7-2.6,0.4c-1.4-0.6-2.1-1.7-2.1-3.2
		c-2.7-5.4-4.5-11.1-4.1-17.2c0.5-8.6-2.7-16.4-5.1-24.4c-3.2-10.9-10.1-19.8-15.9-29.3c-0.7-1.1-1.7-2.1-1.8-3.6
		c0.2-1.1,0.9-1.5,2-1.5c4.3,2.5,8,5.7,11.1,9.6c4.5,6.2,7.4,13.1,8.4,20.7c0.2,1.6,1,3.1,1.6,4.7c1,4.8,3.2,9.3,3.3,14.3
		C185.8,267.7,187.5,272.2,187.8,276.8z"/>
	<path fill="#144B80" d="M187.1,293.5c0.6,2,1.1,3.9,1.8,6.2c-5.9-2.9-11.9-0.1-12.6,5.9c-0.4,3.2-2.2,3.4-4.1,3.4
		c-5.6,0-10.5,2.1-15.4,4.4c-3.3,0.5-3.9-2-4.7-4.2c4.4-6.1,10.5-8.2,17.7-8c4,0.5,2.8-3.8,4.8-5.1c2.1-1.5,4-3.4,6.9-3.2
		c0.6-0.2,1.2-0.4,1.8-0.7C185,291.2,186.3,291.7,187.1,293.5z"/>
	<path fill="#CA1425" d="M161.5,215c6,9.5,13.7,18.2,16.6,29.5c0.3,1.1,0.4,2.3,0.6,3.5c-7.2-13.6-15.7-26.4-25-38.6
		c-1.8-2.4-3.9-4.5-5.9-6.8c-0.6-1.1-0.9-2.2,0.3-3.1c4.8,1.8,7.4,5.9,10.3,9.7C159.4,211.1,161.2,212.7,161.5,215z"/>
	<path fill="#A52D3D" d="M148.8,199.7c-1.1,0.7-0.8,1.9-0.9,2.9c-9.6-8-19.3-15.9-28.9-23.9c0.7-1,2.3-1.2,2.6-2.6
		c4.6,0.7,6.2,5.2,9.5,7.5c1.3,1.5,2.8,2.9,4.5,3.9c1.7,1.4,3.3,3,5.1,4.2C144.1,193.5,147.9,195.2,148.8,199.7z"/>
	<path fill="#52201F" d="M18.8,319.4c-0.4,1.5-0.2,3.2-1.4,4.5c-0.2-7.1,2.3-13.3,7-18.5c4-4.3,10.2-5.5,15.4-2.8
		c4.4,2.3,8.5,5.1,12,8.6c0,0.9-0.2,1.6-1.1,2.1c-1.1,0.2-2-0.3-3-0.7c-2.5-1.8-5.3-3.3-7.7-5.2c-5.5-3.9-11.1-3-14.6,2.4
		C23,312.9,21.1,316.3,18.8,319.4z"/>
	<path fill="#542121" d="M112.5,301.2c10.3-2.3,20.6-4.6,29,4.7c-0.3,2.3,2.6,4,1,6.5c-1.6,0.3-2.5-0.8-3.5-1.6
		c-5.8-7.5-13.1-9.2-21.8-6c-1.1,0.3-2.2,0.3-3.2-0.1C112.4,303.9,114.4,301.7,112.5,301.2z"/>
	<path fill="#481C1C" d="M62.6,311.1c4.2-3.1,7.7-7.1,12.4-9.7c11-6.3,22.6-6.2,30.4,0.7c-0.7,1.1-1.9,1.3-3,1.4
		c-7.7-3.5-15.5-5-23.4-0.8c-4,1.8-8,3.7-11,7c-1.3,1.1-2.3,2.6-4.2,2.7C63.1,312.2,62.7,311.8,62.6,311.1z"/>
	<path fill="#502122" d="M170.5,302.1c-7.2-0.6-13,2.4-17.9,7.3c-0.3,0.3-0.6,0.4-1,0.3c-0.8-0.2-1.4-0.5-1.8-1.3
		c5-7.4,12.8-8.5,20.8-9.1C171.1,300.3,171.1,301.2,170.5,302.1z"/>
	<path fill="#C41426" d="M149.7,308.5c0.6,0.4,1.3,0.7,1.9,1.1c0.3,3.5-2.2,5.5-4.3,7.5c-2.3,2.1-4.3,0.1-4.9-4.8
		c0.1-2.2-2.3-4-0.9-6.4c0.6,0.7,1.2,1.3,1.7,2.1C146.2,312.5,146.2,312.5,149.7,308.5z"/>
	<path fill="#C11624" d="M102.3,303.1c0.7-1.3,1.9-0.9,3-1c2.9,3.6,4.8-0.2,7.2-0.9c3.2,0,1.9,1.5,0.9,2.8c-4,5.2-5.4,5.4-10.8,1.6
		c-0.3-0.3-0.5-0.7-0.6-1.2C102,303.9,102.1,303.5,102.3,303.1z"/>
	<path fill="#186BF2" d="M51.1,222.7c0,2.4-1.5,3.7-3.6,3.9c-1.9,0.2-3.2-1-3.2-3c0-2.5,1.3-4,3.8-4.1
		C50.2,219.5,51,220.9,51.1,222.7z"/>
	<path fill="#176AEE" d="M109.7,181.8c-0.5,2.4-1.8,3.6-4.1,3.5c-1.9-0.1-3.2-1.1-3.1-3.1c0.1-2.3,1.5-3.6,3.8-3.6
		C108.4,178.6,109.4,179.9,109.7,181.8z"/>
	<path fill="#1767E8" d="M82.8,193.5c2,0.1,3.1,1.2,3.3,3c0.2,2-0.8,3.6-2.9,3.7c-1.9,0.1-3.1-1.1-3.3-2.9
		C79.7,195.3,80.9,194,82.8,193.5z"/>
	<path fill="#BF1524" d="M62.6,311.1c0.3,0.3,0.6,0.7,0.9,1c-0.1,3.1-2.5,4.7-4.6,6.3c-1.5,1.2-3.2,1.1-4.4-0.4
		c-1.4-1.6-3.2-2.8-3.7-5c0-0.7,0.2-1.4,0.9-1.7c0.3,0.3,0.8,0.5,1,0.9c2.2,3.8,4.6,3.5,7.2,0.4C60.6,311.8,61.4,311.1,62.6,311.1z"
		/>
	<path fill="#186AF0" d="M24.7,261.6c-0.2,2.1-1.1,3.4-3,3.4c-2,0-2.8-1.4-2.8-3.3c0-1.9,0.8-3.2,2.9-3.1
		C23.7,258.6,24.4,260.1,24.7,261.6z"/>
	<path fill="#C11429" d="M170.5,302.1c-0.5-0.9-0.2-1.8,0-2.8c-0.1-2.7,2-4,3.7-5.5c0.7-0.4,1.6-0.5,1.9,0.4
		c0.3,0.9-0.4,1.7-1.1,2.3c-0.5,1.4-0.9,2.7-1.4,4.1C173.1,302.4,172.2,303.2,170.5,302.1z"/>
	<path fill="#511B20" d="M175,296.6c-0.1-0.9,1.4-2.4-0.8-2.7c3.9-4.2,5.1-4.3,7.3-1.1C179.3,294.1,177.1,295.3,175,296.6z"/>
	<path fill="#A41B20" d="M187.1,293.5c-1.3-0.4-2.6-0.9-3.9-1.3c0.2-3.4,2.8-2.4,4.7-2.5c0.6,0.9,1.2,1.9,1.9,2.8
		c0.3,0.6,0.3,1.1-0.4,1.5C188.7,293.5,188,293.1,187.1,293.5z"/>
	<path fill="#96163E" d="M93.3,195.6c-0.2,1.1-0.6,1.8-1.7,1.9c-1.2,0-1.9-0.8-1.9-2c0-0.9,0.5-1.8,1.6-1.7
		C92.5,193.8,93.2,194.6,93.3,195.6z"/>
	<path fill="#B6202E" d="M110.8,169.6c3.7,2,4.7,3.5,3.5,5.5c-0.7-0.5-1.3-1.1-2-1.6C113.6,171.5,110.6,171.2,110.8,169.6z"/>
	<path fill="#FEFDFD" d="M210.1,213.3c3.6,0.9,5.9-1.6,8.6-3.1c0.4,0.4,1,0.7,1.3,1.2c1.9,3.2,4.1,4.8,7.6,1.8
		c0.5-0.4,1.4-0.4,2.1-0.6c2,0.5,2.5,2.5,3.7,3.9c1.8,2.3,3.4,4.7,5,7.1c0.4,0.5,0.7,1,1.1,1.5c2.1,4.2,6.2,7.2,7.3,12
		c2.2,3.3,4.4,6.7,6.7,10c4.9,3.5,7,9.2,10.6,13.6c1.8,2.2,3.7,4.4,3.2,7.6c-1.2,0.9-2.4,1.8-3.6,2.8c-3.4-1.6-3.9-5.5-6.1-8.1
		c-5.1-5.8-4.9-5.9-11-1.6c-2-0.6-3-2.2-1.7-3.9c2.5-3.2-0.1-5.1-1.6-7c-2-2.5-3.9-0.1-5.9,0.6c-1.9,0.7-4.4,4.8-5.7-0.6
		c0.5-2.1,2.4-3,4-4c2.7-1.8,3-3.4,1.3-6.2c-1.9-3.1-4.7-5.9-5.3-9.7c-1.4-2.2-2.7-4.3-4.1-6.5c-2.4-0.6-2.1-4.4-4.7-4.4
		c-2.4,0-3.6,2.6-5.7,3.4c-0.6,0.2-1.1,0.4-1.7,0.1c-0.1-0.3-0.3-0.6-0.4-0.9c-1.7-0.9-2.1-2.6-2.4-4.3
		C211.6,216.4,210.8,214.9,210.1,213.3z"/>
	<path fill="#FDFDFD" d="M288.5,296.6c2.2,3,4.4,6.1,6.6,9.1c-4.4,3.1-8.8,6.3-13.2,9.4l-0.3-0.1c-6.9-10.8-13.6-21.6-20.6-32.3
		c-1.6-2.4-1.6-3.9,0.7-5.6c2.7-1.9,4.6-4.8,7.9-5.9c2.5,1.7,4.6,3.7,4.2,7.1c-0.2,0.6-0.6,1.2-1,1.7c-5.4,5.1-5.7,7.8-1.4,12.6
		c1.5,1.7,3.1,2.2,5,0.7c1.8-1.4,3.4-3,5.9-2.7C284.6,292.3,286.4,294.6,288.5,296.6z"/>
	<path fill="#851D16" d="M137.3,345.6c7.2,0,14.3,0,21.5,0c3.9-2.4,8.2-0.9,12.3-1.3c6,0,12.1,0.7,18.1-0.7c2.3-2.3,0.1-5.1,0.7-7.6
		c0.3-0.7,0.6-1.2,1.5-1.1c2.8-0.3,3.6,0.6,3.1,3.7c-1.1,6.8-0.7,7,6.2,7c3.6,0,7.2,0.1,10.8,0.2c2.1,2.5,2,4.8-0.9,6.6
		c-11.8,0-23.5,0-35.3,0c-0.8,0-1.6,0-2.4,0c-2.4-0.3-3.1-2.5-4.5-3.9c-1.5-1-3.2-0.7-4.8-0.7c-9,0-18,0.1-27-0.1
		c-1.8,0-4.1,0.7-4.8-2l-0.3-0.3C133.4,344.2,135.3,344.1,137.3,345.6z"/>
	<path fill="#191D48" d="M213.3,325.8c-0.1-1.8,0.4-4,2.4-3.4c5.7,1.5,11.3-1.2,16.9-0.3c2.1,0.3,4.3-0.2,5.6,2.1
		c1.3,2.4,0,4.3-1.4,6.2c-1.3,1.4-3,1.1-4.6,1.2c-6.5,0.4-6.8,0.6-8.1,7.2c-1.1,3.7-5.2,4.3-7.3,7.1c-0.2,0.4-0.5,0.7-0.9,1
		c-0.5,0-0.9-0.2-1.2-0.6c-1.1-4.8-0.4-9.6-0.3-14.3C214.4,329.8,214.5,327.7,213.3,325.8z"/>
	<path fill="#FD7FDF" d="M273.2,278.5c0.3-3.2-3.1-4.5-3.7-7.2c1.1-1.9,1.9-4.1,4.5-4.4c1,0.2,1.5,0.9,2,1.6c1.1,2,2.3,3.4,4.8,1.6
		c2.3-1.6,3.5-3.1,1.2-5.6c-0.7-0.7-1.1-1.8-0.7-2.9c2.4-2.3,5.5-3.6,8.4-5.2c2.7,3,7.2,5,6.2,10.3c-1,4.7-5.8,5.6-8.4,8.7
		c-1.1,0.9-1.5,2.4-2.4,3.4c-0.8,0.4-1.8,0.4-2.5,1C279,282.6,276,281.5,273.2,278.5z"/>
	<path fill="#8A2754" d="M148.8,199.7c-2.5-3-5.2-5.9-9.1-7.2c3.3-1.8,3.8-4.8,3.2-8.1c-0.5-3-1.3-5.9-2.1-8.8
		c-0.2-1.1-0.9-2.2,0.1-3.2c2.5-1.1,2.9,0.8,3.8,2.5c2.9,5.5,4.5,11.5,6.9,17.1c3.1,7.5,6.9,14.8,13.1,20.4c0.5,0.5,1.5,2.8,2.3,0.1
		c4.5,5.1,9,10.2,13.5,15.4c-4.3,1.6-5-3-7.5-4.4c-3.3-3-6.6-6.1-9.8-9.1c-1.8-1.5-3.9-2.6-5.2-4.6
		C154.9,206.3,151.9,203,148.8,199.7z"/>
	<path fill="#D98C01" d="M131.7,345.9c4.1,1.4,8.3,0.4,12.5,0.6c7.4,0.2,14.8,0.1,22.2,0.2c1.4,0,3.1-0.7,4.1,0.9
		c-1.9,1.7-4.2,1.3-6.4,1.4c-11.2,0-22.5,0-33.7,0c-1.6,0-3.3-0.1-5,0.4c-1.2,1.2,2.1,2,0.4,3.2c-11.1,0.1-22.3,0.1-33.4,0
		c-1.5,0-4,0.9-3.6-2.3c0.7-1.6,2.1-1.8,3.8-1.7c-1.3-0.1-2.4,0-3.4-0.3c-1-0.5-2.2-0.9-1.9-2.4
		C102.1,345.9,116.9,345.9,131.7,345.9z"/>
	<path fill="#DBC665" d="M89.9,349.5c-1.7,2.8,0.4,2.5,2.1,2.5c11.4,0,22.7-0.1,34.1-0.1c1.8-1.5,3.9-1.3,6-1.3c11,0,22,0,32.9,0
		c2.6,0,5.1,0.5,7.5,1.5c0.5,0,1.1,0.1,1.6,0.1c0.3,0.1,0.4,0.2,0.4,0.4c0,0.2-0.1,0.3-0.1,0.3c-5.1,0-10.3,0.1-15.4,0.1
		c-38.4,0-76.8,0-115.2-0.1c-1.9,0-3.9,0.5-5.8-0.6c2.4-2.3,5.4-1.3,8.1-1.4c1.9-0.1,3.5-0.1,4-2.5c0.4-1.7,1.8-2.1,3.5-2.2
		c2.1-0.1,4.2,0.6,6.2-0.4c2.4,0,4.9,0.1,7.3,0.1c0.1,1.7-2.1,1.5-2.5,3.2c1.9,1.4,3.9,0.7,5.8,0.1c5.8-1.8,11.6-0.9,17.5-0.7
		C88.8,348.4,89.5,348.8,89.9,349.5z"/>
	<path fill="#144B81" d="M102.4,304.2c0.1,0.2,0.1,0.3,0.1,0.5c-0.6,1.6-1.3,3.1-2.8,4c-10.6-3.8-20-0.6-28.7,5.4
		c-2.3-0.7-3.2-2.6-4.1-4.6c2.8-3.9,6.9-5.7,11.2-7.4c4.9-2.1,10-2.9,15.2-2.2C96.8,300.4,99.9,301.5,102.4,304.2z"/>
	<path fill="#A82A37" d="M208.7,253.2c6.2,3.1,12.4,6.1,19.4,6.9c2.2,0.3,3.4,1.8,4.6,3.3c9.3,11.9,17.3,24.6,28.1,35.3
		c2.4,2.4,2,5.9,3.3,8.7c-0.2,0.1-0.3,0.2-0.5,0.4c-1.2-0.2-1.8-1-2.2-2c-1.5-3.1-3.1-6.1-6.2-8c-5.1-7.8-11-14.9-17.8-21.3
		c-1.7-1.6-2.6-3.6-3.3-5.8c-0.7-2.1-1.7-3.8-4-4.5c-3.2-2.5-6.7-4.4-11.1-3.9c0.2,2.9,4.6,3.7,3.4,7.2c-2.8,0.7-3.8-1.9-5.5-3.1
		c-4.2-2.9-7.4-6.9-11.5-9.9c-1.3-1-2.6-2.1-2.5-4C205.2,250.3,206.6,254.2,208.7,253.2z"/>
	<path fill="#E55D46" d="M246.7,237c-3-3.6-5.7-7.5-8-11.6c0.5-2.8,2.6-4,4.9-5c0.4-0.2,0.8-0.3,1.2-0.4c2.5-0.1,3.1-2.8,5-3.7
		c3.7-0.2,3.7,3.8,5.8,5.4c3.8,2.9,0.1,4.5-1.4,6.3C251.8,231.1,249.2,234,246.7,237z"/>
	<path fill="#407412" d="M66.9,309.6c2.4,0.6,2.7,3.1,4.1,4.6c-4.3,4.2-8.9,8-12.7,12.7c-1.7,2.1-3.6,1.9-5.3-0.1
		c-3.2-3.6-6.3-7.2-9.5-10.8c0-4,0.8-4.6,4.8-3.7c0.8,0.3,1.7,0.5,2.5,0.8c0.1,0.1,0.3,0.2,0.4,0.3c6.7,6.2,6.7,6.2,12.3-1.2
		C64.6,311.2,65.7,310.4,66.9,309.6z"/>
	<path fill="#144A7F" d="M48.3,312.2c-2.7-0.1-4.3,1.1-4.8,3.7c-1-0.4-1.9-0.8-2.9-1.3c-9-4.2-13.7-1.1-17,9.3
		c-0.3,0-0.5,0.1-0.8,0.1c0-0.7-0.1-1.5-0.1-2.2c0.4-3.8-0.8-4.7-4-2.3c0.6-4.1,3.1-7,5.7-10c5.1-5.1,9.8-5.8,16.3-2.5
		C43.3,308.7,46.3,309.7,48.3,312.2z"/>
	<path fill="#3D7218" d="M246.9,312.1c-3.2,0.3-5.9,1.5-8.2,3.9c-2.6,2.7-5.1,1.9-6.4-1.6c-1-2.5-1.9-5-2.8-7.5
		c-0.6-1.4-1.7-2.5-2.3-3.8c-0.6-1.6-0.9-3.4,0.6-4.6c1.6-1.3,3.1-0.4,4.4,0.7c1.4,1.1,2.6,2.5,3.9,3.7c2,4.6,5.5,1.7,8.5,1.8
		c1.2,0,2.3,0.1,3.4,0.7C250.5,308.1,249.9,310.3,246.9,312.1z"/>
	<path fill="#42133D" d="M171.6,345.6c-4.3,0-8.6,0-12.8,0c-1.9-1.4-4-0.6-6.1-0.8c-1.7-0.1-3.6-0.1-3.7-2.3c-0.2-2,1.6-2.1,3.1-2.5
		c1.7-0.4,3.4-1,5.1-1.5c4-2.3,7.9-2.5,11.6,0.7c3.7,0.3,7.3,0.6,11,1c0.2,0.1,0.4,0.2,0.7,0.3c2,3.1,0.5,4.4-2.6,4.6
		C175.7,345.5,173.6,344.9,171.6,345.6z"/>
	<path fill="#3350B6" d="M231.5,230.6c2.5,3.8,5,7.8,7.7,11.5c1.2,1.7,0.7,2.6-0.7,3.6c-2.3,1.6-4.6,3.2-7,4.9
		c-3.5-3-4.8-7.5-7.4-11.1c-0.8-0.9-0.8-1.8,0-2.7C226.6,234.7,229.1,232.6,231.5,230.6z"/>
	<path fill="#C3172D" d="M208.7,253.2c-0.2,1.7-0.9,2-2.2,0.9c-1-0.8-1.8-1.9-3.3-1.8c-2.2,0.5-3.2-1.3-4.5-2.5
		c-3.2-3.1-6.7-5.7-9.9-8.6c-1-0.9-2.1-2.1-3.6-1.4c-1.3,0.6-0.7,2.1-0.8,3.3c-0.1,1.4,0.1,2.7-0.2,4.1c-0.2,0.7-0.4,1.3-1,1.7
		c-1.4-1.7-2-3.8-2.2-5.8c-0.6-7.5-4.3-13.6-8-19.7c2.8,0.9,4.2,4.3,7.5,4.4C189.6,236.6,199.1,244.9,208.7,253.2z"/>
	<path fill="#455BEB" d="M252.5,195.3c0.5,0.8,1,1.7,1.5,2.5c-0.5,1.4,1,2,1.4,3.1c0.9,2.7,2.4,3.4,5,1.6c2.1-1.4,4-1.4,4.4,1.8
		c-2.2,3.8-6.5,4.9-9.7,7.5c-1.4,1.1-2.9,2-4.3,3.1c-0.8-2.6-1.5-5.1-3.1-7.4c-3.8-5.5-3.4-7.1,2.5-10.2
		C251.2,196.8,252.2,196.5,252.5,195.3z"/>
	<path fill="#1A90C3" d="M223.3,339.3c0.1-1.5,0.2-3,0.3-4.5c0.3-2.8,1.8-4.3,4.7-4.4c2.9-0.1,5.7-0.1,8.6-0.2
		c4.6,0.9,2.4,4.8,3.1,7.4c0.4,0.7,0.4,1.4,0.1,2.1c-0.5,1-1.3,1.4-2.3,1.8c-1.9,0.8-4,0.8-6,0.9c-1.8,0-3.6,0.1-5.4-0.2
		C224.8,342,223,341.7,223.3,339.3z"/>
	<path fill="#37662D" d="M106.4,333.9c2.4,2.3,1.5,5.3,1.5,8c-0.1,2.8-2.8,1.1-4.3,2.1c-2.8,2-6.5,1.4-9.5,0.4
		c-5.1-1.6-3.8-5.9-3.1-9.6C95.9,332.9,101.2,334.5,106.4,333.9z"/>
	<path fill="#144A7E" d="M235.9,304.2c-1.4-1.3-2.8-2.7-4.2-4c-1-0.9-2.1-2.2-3.4-1.2c-1.2,0.9-0.7,2.5-0.2,3.7
		c0.5,1.4,1.5,2.6,1.4,4.2c-3.3-4.9-8.8-4.5-13.7-5.6c-2-0.9-3.4-2.4-3.6-4.7c0-0.7,0.1-1.4,0.3-2.1c0.6-1.2,1.5-2,2.8-2.3
		c2.7-0.4,5.4-0.3,8.1-0.1c2.1,0.4,3.9,1.6,5.6,2.7c2.5,1.8,4.6,4,6.7,6.3C236.4,302.1,236.9,303.1,235.9,304.2z"/>
	<path fill="#602221" d="M122.6,334.8c-0.9,0-1.9,0-2.8,0c-3.9-0.8-7.1-2.5-8.9-6.2c-1-4.2,0.6-6.2,5-5.6c0.9,0.1,1.8-0.1,2.7,0.1
		c2.4,0.5,6.2-1.5,7,0.9c1.1,3.2,1.6,7.2-0.4,10.7c-1-0.9-1-2.2-1.1-3.6C123.7,332.5,123.5,333.8,122.6,334.8z"/>
	<path fill="#E1AA4D" d="M267.2,268.2c-3.4-7.4-9.1-13.2-13.2-20.1c-0.2-0.4-0.4-0.8-0.6-1.1c2.6-3.3,4.4-2.3,6.5,0.8
		c2.9,4.2,6.2,8.1,9.4,12.2c1.5,1.8,3.3,3.7-0.4,5C267.1,265.6,268.1,267.3,267.2,268.2z"/>
	<path fill="#144B80" d="M117,303.9c9.1-4,16.9-2.1,22.9,6.4c-1,1.3-2.3,2.3-3.7,3c-5.4-4.3-11.4-6-18.2-4
		C117.5,307.5,117.5,305.7,117,303.9z"/>
	<path fill="#3E701A" d="M136.1,313.3c0.7-1.7,1.3-3.5,3.7-3c0.8,0.6,1.7,1.3,2.5,1.9c3,5.9,3,5.9,7,0.6c0.8-1.1,1.5-2.2,2.2-3.3
		c0.3,0,0.6-0.1,0.9-0.1c1.8,0.9,2.1,3.5,4.3,3.9c-3,3.3-6,6.5-9,9.8c-1.8-1.8-3.9-2.8-6.5-1.8C139.7,318.6,137.9,316,136.1,313.3z"
		/>
	<path fill="#CB481F" d="M276.1,260.6c-1.8,2-2.7,0.5-3.8-0.8c-4.2-5.3-8.2-10.7-12.6-15.7c-2.3-2.7-0.5-4.3,0.7-6.3
		c3-0.2,4,2.7,6,4.1c1.5,1.5,2.8,3.2,3.9,5.1C272.7,251.3,276.1,255.2,276.1,260.6z"/>
	<path fill="#81CEF9" d="M289.8,232.5c2.1,2.8,4.1,5.6,6.2,8.5c-1.6,0.7-2.9,1.7-3.8,3.2c-0.9,1-2.8,1-2.6,2.9
		c-0.1,0.8-0.6,1.1-1.3,1.4c-4.2-0.1-8.2-4-8.1-7.8c0-1,0.4-1.9,1.3-2.2C284.9,237.4,287,234.5,289.8,232.5z"/>
	<path fill="#E19204" d="M59.9,345.7c-1.4,1.4-3.1,0.8-4.7,0.8c-2.7,0.1-4.9,0.4-4.2,4c0.4,2.3-1.4,1.4-2.3,1.5
		c-3.6,0.2-7.1,0.2-10.7,0.2c-1.6,0-3.2-0.1-4.8-0.1c-2,0-2.5-1-2.3-2.8l-0.1,0.1c2.7-0.9,5.5-1.8,8.2-2.8c1.5-2.3,3.7-1.3,5.7-1.3
		c2.8,0,5.6-0.4,8.3,0.3C55.3,345.7,57.6,345.7,59.9,345.7z"/>
	<path fill="#432F1D" d="M245.9,337.5c-1.7-3.5-0.6-7,0.1-10.6c0.4-1.9,2-2,3.4-2.4c2.9-1,6-0.9,8.9-0.4c3.4,0.5,5-0.6,5.7-3.7
		c1.4,2.1,1.1,4.2,0.4,6.4c-1.5,1.3-3.3,1.2-5.1,1.3c-5.6,0.3-5.8,0.5-6.7,6.2C251.9,338.7,250.3,339.5,245.9,337.5z"/>
	<path fill="#04279F" d="M281.6,315c0,0,0.3,0.1,0.3,0.1c0.7,1.5,1.9,2.6,3.1,3.6c0.1,0.2,0.2,0.3,0.3,0.5c0.9,1.8,2,3.5-0.1,5.2
		c-2.3,2-5,4.8-7.5,4.3c-2.1-0.4-3.9-3.9-5.1-6.4c-0.9-1.8,1.7-2,2.8-2.8C277.4,317.8,279.5,316.5,281.6,315z"/>
	<path fill="#3F7215" d="M117,303.9c2.5,1.4,2.3,3.3,0.9,5.4c-2.7,0.7-4.9,2.3-7.2,3.7c-1.2-0.5-0.9-2.5-2.7-2.5
		c-0.9,2,1.4,2.2,1.8,3.5c-0.2,1.4,0.4,3.1-1.9,4.3c-1.3-4.6-5.5-6.5-8.3-9.7c0.4-1.7,0.9-3.4,2.8-4c3.9,3.1,7.5,2.6,10.9-0.7
		C114.6,303.9,115.8,303.9,117,303.9z"/>
	<path fill="#B34E26" d="M245.9,337.5c3.8,0.7,6.2-0.1,5.4-4.8c-0.7-4.3,1.8-6,5.8-6c2.3,0,4.5-0.1,6.8-0.1c1.2,1,1.1,2.2,0.6,3.6
		c-5.2,1.2-5.4,6-7,9.8c-6,0.7-12,0-17.9-0.6c0.1-0.5,0.2-1.1,0.3-1.6C241.9,337.6,243.9,337.5,245.9,337.5z"/>
	<path fill="#104170" d="M212.4,218c1.3,1.2,1.9,2.7,2.4,4.3c-1.2,3.7-6,7.4-9.7,7.3c-3.4,0-3.4-3.5-4.7-5.4
		c-1.1-1.6,1.3-2.1,2.3-2.5C206,220.6,208.5,217.3,212.4,218z"/>
	<path fill="#CCBB3A" d="M196.8,307.6c0.8,3.8,1.9,7.6,1.9,11.5c0,3.5-1.4,5.7-5.3,5.8c-4.2,0.1-4.8-2.7-4.6-5.6
		c0.4-6.1,2.3-12.1,1.8-18.3c1.6,0.4,3.2,0.4,4.7-0.3c0.3,1.7,0.6,3.4,0.9,5.1c-0.6,0.8-1.6,1.4-1.6,2.6c0,3.7-0.5,7.4-1.7,11
		c-0.3,0.8-0.1,1.8,1.1,2.4c2.1-2.8,0.4-5.8,0.9-8.6C195.2,311.3,193.9,308.7,196.8,307.6z"/>
	<path fill="#4E6D25" d="M168.7,339.3c-3.8-1.1-7.7-0.9-11.6-0.7c-2.3-5.6-1.5-7.7,3.5-9.2c1.9-0.5,1.5-1.9,1.7-3.1
		c0.3-1.6-0.9-3.8,1.9-4.3c0.6,0.4,0.9,1.1,1.1,1.8c0.3,1.8,0.2,3.6,0.4,5.4c0,0.6-0.1,1.2-0.3,1.7c-0.3,1-0.8,2.1,0.2,2.9
		c1,0.8,1.9,0.2,2.8-0.5c0.5-0.4,1-0.6,1.6-0.5c1.8,1.2,4.3,0.4,6,2C173.7,336.5,169.1,334.6,168.7,339.3z"/>
	<path fill="#19454E" d="M137.3,345.6c-1.9,0-3.9,0-5.8,0c-0.7-0.8-1.6-0.8-2.5-0.7c-4.5,0.5-3.8-2.6-3.7-5.2
		c0.1-3.1,1.9-3.1,4.4-2.4c1.1,0.3,2.4,0.2,3.6,0.2C139.7,337.5,140.8,339.5,137.3,345.6z"/>
	<path fill="#F0CD95" d="M288.8,247.7c0.3-0.2,0.5-0.4,0.8-0.6c2.9,1.2,3.3,3,0.6,4.7c-4.7,2.8-8.9,6.7-14,8.8
		c-2.2-4.6-4.4-9.2-6.6-13.8c-0.7-0.9-0.4-1.6,0.5-2.1c3.3,0.9,3.9,4.3,5.7,6.6c2.1,2.7,3.8,3.5,6.5,0.9
		C284.1,250.3,286.4,248.9,288.8,247.7z"/>
	<path fill="#572A79" d="M179.7,340.3c0.4-3.7,0.9-7.3,1.3-11c6.2-2.8,8.9-1.1,8.9,5.2c-0.8,2.3,1.1,5.1-1.6,7
		C185.3,341.8,182.3,342,179.7,340.3L179.7,340.3z"/>
	<path fill="#457B39" d="M224.2,236.7c0,0.9,0,1.8,0,2.7c-1.5,1.1-3.3,1.8-3.9,3.8c-1.2,0.4-2.3,0.6-3.4-0.2c0.2-1.1-0.1-2-0.7-2.9
		c-1-1.4-3.6-2.3-2.9-4.1c0.8-2.1,2.8-3.8,4.4-5.6c1.6-1.8,2.6,0.3,3.1,1C221.8,233.4,222.7,235.2,224.2,236.7z"/>
	<path fill="#86EF6D" d="M89.9,349.5c-6.9,0.3-14-1.6-20.7,1.6c-0.7,0.4-1.8,0.1-2.7,0.1c-1.9,0.1-4-0.2-4.3-2.3
		c-0.4-2.8,2.3-2,3.8-2.4c0.4-0.1,0.8-0.4,1.2-0.6c0.8,0,1.7,0,2.5,0c3.5,1.4,7.1,0.7,10.7,0.8c2.9,0.1,5.7-0.2,8.5,0.7
		c2.5,0.5,5.2-0.4,8.5,1C94.5,350,92.1,349.1,89.9,349.5z"/>
	<path fill="#DA9136" d="M257.6,339.3c0-0.9,0-1.8,0-2.7c0.1-5.7,0.5-6.2,6.4-6.4c0.7-0.5,1.4-0.5,2.2-0.1c2.5,0.7,2,4.5,5,4.6
		c-3.3,0.9-5,3.1-6,6.2C262.5,341.5,259.6,342.4,257.6,339.3z"/>
	<path fill="#CAB73B" d="M214.3,313c-0.7-3.4-1.1-6.8-3.2-9.8c0.6-1.1,1.7-1.3,2.8-1.5c0.5,0,0.9,0.1,1.2,0.4c0.4,1,0.9,2.2,1.9,2.4
		c4.7,0.7,5.7,4.4,6.6,8.1c0.8,2.9,1.6,6.5-2.3,7.5c-3.7,1-5.7-1.6-6.5-5.1c-0.2-0.7,0.1-1.2,0.8-1.1c0.6,0,1.1,0.4,1.6,0.7
		c1.7,0.8,2.6,0.1,2.8-1.6c0.2-1.7,0.3-3.6-1.5-4.3c-1.9-0.8-2.1,1-2.5,2.3C215.8,311.8,215.9,313.2,214.3,313z"/>
	<path fill="#0E3EA8" d="M69.9,336.5c2.7,0.3,2.9,2.2,2.7,4.3c-0.3,2.1-1.7,3-3.7,3.2c-6.5,0.7-9.1-2-7-7.4
		C64.5,334.1,67.2,333.6,69.9,336.5z"/>
	<path fill="#E48C18" d="M215.3,223.1c0.8-0.6,1.7-1.2,2.5-1.8c6.2-4.3,6.2-4.3,9.7,2.7c-0.4,0.4-0.7,1-1.2,1.3
		C220,229.8,220,229.8,215.3,223.1z"/>
	<path fill="#9BC948" d="M216.8,243.1c1.2-0.4,2.3-0.8,3.4,0.2c3.2,3.9,2.2,8-2.6,9.5c-3.9,1.3-3.6-3.2-5.4-4.8
		c-1.7-1.4-0.1-2.3,1-3C214.4,244.3,215.6,243.8,216.8,243.1z"/>
	<path fill="#C21124" d="M255.9,297.6c3.7,1.4,5.2,4.7,6.4,8.1c-0.7,1.1-2.1,2.3-0.5,3.4c1.1,0.8,1.5-1.1,2.3-1.5c0,0,0-0.1,0-0.1
		c0.4,0.4,1,0.7,1.2,1.2c1,1.9,1.7,4.5-0.1,5.7c-2.1,1.5-3.7-0.9-5.1-2.2c-0.6-0.6-1-1.4-1.5-2.2c-1.4-1-1.9-2.5-2.7-3.9
		c-0.5-1.3-1-2.6-1.9-3.7c-1.5-2-3.1-3.9-3.2-6.6c1.1-2.2,2-0.6,2.9,0.2C254.5,296.6,254,298.8,255.9,297.6z"/>
	<path fill="#14497E" d="M206.9,298.4c-0.5,1.8,2.2,4.8-0.9,5.4c-2.8,0.6-6.5,0.1-7.7-3.1c-0.8-2.1-4.4-3.7-2.5-6.1
		c1.8-2.2,4,1.2,6.1,1.1C204.2,295.6,205.2,297.7,206.9,298.4L206.9,298.4z"/>
	<path fill="#C5B23A" d="M206.9,298.5c-2.7-5.2-7.4-8.8-11-13.3c-2.4-3-4.9-6-7.3-9c-0.6-2.3,0.2-2.9,2-1.5c1.2,0.9,2.2,1.9,3.8,2
		c3.2,5.5,7.9,9.7,12,14.4c1.1,1.3,2.4,2.7,2.8,4.5c0,1.2-0.4,2.2-1.6,2.7l-0.4,0C207.3,298.2,206.9,298.4,206.9,298.5
		C206.9,298.4,206.9,298.5,206.9,298.5z"/>
	<path fill="#15497C" d="M256.9,305.9c0.8,1.3,1.8,2.5,1.8,4.1c0.1,2.7-0.6,4.2-3.9,3.3c-2.5-0.7-5.2-0.8-7.9-1.2
		c1.7-1.9,2.4-3.9,0.8-6.2C250.8,304.2,253.8,303.4,256.9,305.9z"/>
	<path fill="#FCBB66" d="M281.3,261.6c0.7,1,1.2,2.2,2,2.9c2.7,2.1,2,3.6-0.4,5.4c-5.2,4-5.1,4.1-9-3.1
		C276.2,264.8,278.6,263,281.3,261.6z"/>
	<path fill="#1E8CBC" d="M213.3,325.8c4,0.6,2.8,3.4,2.4,5.9c-0.9,5-1,9.9,0.2,14.9c1.5,1.7,1.7,3.6,0.3,5.2c-1.2,1.3-3.1,1.3-4.7,0
		c0.2-1.9,0.7-3.9-0.1-5.8c3.4-4.3,1.3-9.1,1.2-13.7C212.5,330,211.4,327.8,213.3,325.8z"/>
	<path fill="#91AE1E" d="M196.8,307.6c-1.6,3.8-1,7.6-0.5,11.5c0.3,1.9-0.2,3.3-1.5,4.4c-0.7,0.6-1.7,0.6-2.5-0.1
		c-1.3-1.2-1.4-3-0.8-4.2c1.6-3.7,1.8-7.5,1.7-11.5c0-2,0.9-2.8,2.9-1.9C196.9,306.2,197,306.9,196.8,307.6z"/>
	<path fill="#BE351D" d="M246.5,261.3c3.3-5.7,6.3-5.8,10.3-0.9c2.7,3.3,4.7,6.9,6.8,10.6c-1.2,1.6-2.3,2-3.3-0.1
		c-0.5-1.1-1-2.2-1.7-3.2c-1.6-2.3-3.3-4.7-5-6.9C251,257.2,249,263,246.5,261.3z"/>
	<path fill="#9CAD23" d="M194,276.8c-1.6,2.3-2.5,0.7-3.3-0.7c-0.8-1.3-1.5-2.7-2.1,0.1c-0.3,0.2-0.5,0.4-0.8,0.6
		c-2.4-2.9-3-11.6-1-13.6c2.6-0.2,3.1,1.9,3.6,3.6c0.8,2.4,1.9,4.7,3.3,6.8C194.2,274.6,194.8,275.6,194,276.8z"/>
	<path fill="#913A4D" d="M26.4,333.9c-3.3-1.7-1.5-4.8-2-7.3c3-1.5,5.9-1.9,8.3,1c1.5,2,1.3,3.9-0.3,5.7
		C30.6,335.2,28.5,335.4,26.4,333.9z"/>
	<path fill="#5F0009" d="M188.5,216.1c-0.6,1.6-3,3.3-4,2.9c-2.7-1.3-3.5-4.6-4.3-7.4c-0.5-1.8,2-2.3,3.4-2.7
		C184.8,208.5,188.5,213.8,188.5,216.1z"/>
	<path fill="#90AE1E" d="M214.3,313c0.9-0.8,0.7-1.9,0.7-3c0-1.7,0.4-3.1,2.3-3.3c2.1-0.2,3.6,1.1,3.9,3c0.3,2,0.9,4.3-0.7,6.1
		c-2.1,2.2-3.7-1-5.7-0.8C214.2,314.5,214.1,313.8,214.3,313z"/>
	<path fill="#DE5A43" d="M259.1,211.1c2.4,1.7,4.3,3.8,4.9,6.3c0.3,1.4-1.9,4-3.2,3.5c-2.7-1.1-5-3.7-6-6.3
		C254.3,213.1,257.6,212.5,259.1,211.1z"/>
	<path fill="#661D55" d="M26.4,333.9c5.8-0.1,6.2-0.6,6.3-6.3c0.6,0,1.2,0,1.8,0.1c4,5.8,2.7,8.4-5.3,10.6
		C27.9,337,27,335.6,26.4,333.9z"/>
	<path fill="#E56415" d="M284.8,344.8c-1,1-2.3,1.1-3.6,1c-1.2-2.3-2.9-3.6-5.6-3.3c-1.4,0.1-3,0-4.2-0.9c-0.7-1.6-0.3-2.9,1.2-3.8
		c0.2-0.1,0.5-0.1,0.7,0c2.6,1,5.3,0.3,8,0.5C285.9,338.2,287,340.3,284.8,344.8z"/>
	<path fill="#220B04" d="M284.8,344.8c0.1-6.4,0.1-6.4-6.3-6.5c-1.7,0-3.6,0.5-5.2-0.7c3.7,0,7.4,0,11.1,0c3.7,1.6,4.3,5.4,6.1,8.3
		c-1,0.6-0.5,1.8-0.9,2.6c-0.8-0.3-0.9,2.7-2.1,0.4C286.6,347.4,285,346.5,284.8,344.8z"/>
	<path fill="#166990" d="M188.8,334.8c-0.1-5.2-0.1-5.2-7.8-5.5c-0.5-1.3-0.3-2.2,1.3-2.7c6.2-1.8,9.4,0.6,9.1,7
		c0,0.4,0,0.9-0.1,1.3c-0.2,0.3-0.4,0.5-0.6,0.8C189.6,336.4,189.3,335.4,188.8,334.8z"/>
	<path fill="#EC1DAE" d="M195.3,300.7c-1.4,3.4-3,2.7-4.7,0.3c-0.4-2.4-0.8-4.7-1.2-7.1c0.1-0.5,0.2-1,0.4-1.5
		c0.9-0.5,1.8-0.4,2.8,0C194.1,295,194.8,297.8,195.3,300.7z"/>
	<path fill="#F0DF42" d="M272.5,337.6c-0.2,1.1-0.2,2.3-1.1,3.2c-0.4,1.2-1.5,1.3-2.5,1.3c-1.3-0.1-2.5-0.5-3-1.9
		c-1.7-4.9-1.3-5.3,5.4-5.5C272.7,335.3,272.3,336.6,272.5,337.6z"/>
	<path fill="#6C9439" d="M164.3,324.1c0-0.7-0.1-1.4-0.1-2.1c0,0,0,0,0,0c4-0.6,7.9-0.6,11.9,0c1.7,4.3,0.5,8.5-0.2,12.7
		c-2.1-0.6-4.9,1.7-6.2-1.7c0.9-1.7,4.2-0.3,4.2-3.3c0.1-6.1-0.1-6.1-7.7-5.2C165.5,324.7,164.9,324.5,164.3,324.1z"/>
	<path fill="#CDC50A" d="M141.4,321.3c3.3-3.3,4.6-2.9,6.5,1.8c-1.1,1.3-0.5,4.5-2.8,3.9C142.8,326.5,141.9,323.7,141.4,321.3z"/>
	<path fill="#114690" d="M285.3,319.1c-0.2-0.1-0.3-0.3-0.3-0.5c0.1-0.9,0-1.9,0.4-2.6c1.2-1.8,2.5-3.6,5.1-2.9
		c1.5,0.4,2.1,1.7,1.7,3.2c-0.6,2.4-2.4,3.3-4.7,3.2c-0.4,0-1.1,0.5-1.5,0.4C285.6,319.9,285.2,319,285.3,319.1z"/>
	<path fill="#CA1326" d="M110.8,328.6c3,2.1,6,4.2,8.9,6.2c-0.3,0.1-0.6,0.1-0.9,0.2C111.6,337.3,110,336,110.8,328.6z"/>
	<path fill="#282C4B" d="M264.8,204.3c-1-1.5-2.1-2.1-4.1-1.2c-4.6,2.1-6.7,0.3-6.7-5.3c0.6,0.6,1.6,1.1,1.8,1.8
		c1.2,3.2,3,3.4,5.6,1.5c3.2-2.4,4.1,1.8,6.3,2.4C267.1,204.9,265.4,202.8,264.8,204.3z"/>
	<path fill="#56211F" d="M115.2,317.7c-0.1,1.8,0.3,3.6-2.4,3.6c-2.3-0.1-2.3-1.6-2.1-3.1c0.1-1.8,0.1-4,2.6-4
		C116.1,314,114.9,316.4,115.2,317.7z"/>
	<path fill="#DBC665" d="M89,347.4c-4.9,0.1-9.8,0.1-14.8,0.2c-1.7,0-3.2-0.5-4.4-1.7c5.8,0,11.6,0,17.5,0.1
		C87.8,346.4,88.4,346.9,89,347.4z"/>
	<path fill="#F217B6" d="M207.7,298.3c0.4-0.8,0.8-1.6,1.1-2.3c0.9-0.5,1.6,0,2.3,0.5c1,1.9,3.8,2.8,3.2,5.6c-0.8,1.2-2,1.1-3.2,1.2
		C210,301.6,208.8,299.9,207.7,298.3z"/>
	<path fill="#26413B" d="M69.9,336.5c-2.7-1.3-5.4-0.6-8.1,0.1c-1.5-1.8-2.4-3.5,1.2-3.5c2.5-0.1,5.1-0.1,7.6,0
		c1.1,0,2.3,0.2,1.1,1.8c-2.6-1.2-5.5,0-8.2-0.6c2.7,0.5,5.5-0.5,8.1,0.7C71.1,335.5,70.5,336,69.9,336.5z"/>
	<path fill="#45735E" d="M44.4,334.1c4.3,0,8.7,0,13,0C53.1,335.9,48.8,335.7,44.4,334.1z"/>
	<path fill="#C8C50B" d="M109.9,314.1c-0.9-0.1-1.9-0.1-2.6-0.5c-1.2-0.6-1.5-1.9-1-3.1c0.5-1.3,1.5-2,2.8-1.6
		c2.1,0.7,1.9,2.5,1.7,4.1C110.5,313.4,110.2,313.7,109.9,314.1z"/>
	<path fill="#F06816" d="M266.2,330.1c-0.7,0-1.4,0.1-2.2,0.1c0-1.2-0.1-2.5-0.1-3.7c0-2.1,0.1-4.1,0.1-6.2c1.9-0.5,1.9,0.8,2,2.1
		C266.1,325,266.2,327.6,266.2,330.1z"/>
	<path fill="#78C7A2" d="M88.3,334.4c-4.1,1.6-8.2,0.6-12.4,0.1C80.1,333.5,84.2,333.4,88.3,334.4z"/>
	<path fill="#C81325" d="M122.6,334.8c-0.3-2.5,0.8-4.5,1.6-6.8c1.5,2.2,0.9,4.5,1,6.8C124.3,334.8,123.5,334.8,122.6,334.8z"/>
	<path fill="#72C193" d="M106.4,333.9c-5.1,1.8-10.3,0.7-15.5,0.9c-0.1-0.2,0-0.5,0.1-0.7c5.1-1.2,10.1-0.6,15.2-0.3L106.4,333.9z"
		/>
	<path fill="#37662D" d="M106.2,333.8c-5.1,0.1-10.2,0.2-15.2,0.3C96,332.1,101.1,332.8,106.2,333.8z"/>
	<path fill="#DD9105" d="M53,345.6c-4.6,0.6-9.4-0.9-14,1c-0.3-0.6-0.6-1.2-0.9-1.8C43.1,345.3,48.1,344.4,53,345.6z"/>
	<path fill="#29191D" d="M265.8,242.3c-1.8-1.5-3.6-3.1-5.4-4.6c0.3-0.7,0.7-1.3,1-2c0.8,0.7,1.6,1.4,2.4,2
		C265.5,238.9,267.1,240,265.8,242.3z"/>
	<path fill="#4E6D25" d="M176.1,322.1c-4,0-7.9,0-11.9,0C168.2,320.8,172.1,320.6,176.1,322.1z"/>
	<path fill="#B64A37" d="M263,209.2c2.8-1,4.3-0.8,5.2,1.3c0.2,0.4,0,1.5-0.1,1.5C265.7,212.3,265.4,209.8,263,209.2z"/>
	<path fill="#1D1121" d="M214.3,302c-0.4-2.4-2.5-3.6-3.7-5.3c0.9-0.8,1.8-0.7,2.6,0c-0.1,2.1,2,2.9,2.6,4.6
		c-0.3,0.3-0.5,0.6-0.8,0.8C214.8,302.2,214.6,302.1,214.3,302z"/>
	<path fill="#FEE785" d="M410.9,261.3c1.8-0.2,3.4,0.3,4.2,2c0.9,1.8-0.1,3.3-1.2,4.5c-4.4,4.8-10.1,7.5-16,9.7
		c-1.4,0.6-3.4,0.7-4.5-1c-1.1-1.7-0.2-3.2,1-4.5c3.4-3.7,6.9-7.1,11.4-9.4C407.4,261.8,409.1,261.1,410.9,261.3z"/>
	<path fill="#1FA9B9" d="M395.2,291.3c-3.6,3.2-8,3.2-12.2,2.5c-3-0.5-3.2-3.3-2.6-5.8c0.6-2.7,2-5,4.1-6.8c0.1,6.9,0.7,7.6,7.7,8.5
		C393.4,289.8,394.5,290.2,395.2,291.3z"/>
	<path fill="#FDE3CD" d="M429.4,251.4c2.5-1.8,5.1-1.6,7.5,0c2.7,1.8,2.1,4.6,1.4,7.3c-2.1,3.1-4,6.3-6.2,9.3
		c-1,1.4-2.6,2.5-4.4,3.6C433.7,265.2,438.5,258.8,429.4,251.4z"/>
	<path fill="#F78D50" d="M327.6,226c1.8-2.5,2-5.5,3.2-8.2c1.9-2.1,2-5.2,3.8-7.4c1.8-1.9,3.4-5,6.5-3.6c3,1.3,4,4.3,4,7.6
		c0,5.9,0.4,11.8-1.6,17.4c-0.2,0.7-0.2,1.5,0.3,2.2c-0.5,1.5-1,3-1.4,4.6c-3,2.5-3.7,6.7-7,8.9c-1.1,0.7-1.9,1.9-3,2.7
		c-1.7,1.3-3.6,2.6-5.8,1.2c-1.9-1.3-2.7-3.2-2.2-5.5c0.5-2.3,0-4.5-0.5-6.7c-0.2-2.3,0.3-4.3,1.9-6
		C326.8,230.9,327.3,228.5,327.6,226z"/>
	<path fill="#185871" d="M343.8,234c0.1-5.7,0.2-11.4,0.3-17.1c0-2.2,0.4-4.6-0.8-6.6c-1.6-2.6-3.4-4.9-6.2-1.1
		c-0.6,0.8-1.5,1.5-2.2,2.2c-0.8,0.2-1.2,0-1-0.9c1.6-3.2,3.2-6.4,4.8-9.6c0.7-1.3,1.1-3,3-2.9c2,0.1,3.2,1.7,3.9,3.3
		c0.9,2.2,1.3,4.5,1.9,6.8C348.1,217,345.9,225.5,343.8,234z"/>
	<path fill="#1D5A72" d="M324.9,239.1c0.6,2.5,1.2,4.9,0.4,7.5c-0.5,1.8,0.5,3.4,1.9,4.2c1.5,0.9,2.9-0.1,4-1.1
		c3.8-3.2,7.4-6.6,9.5-11.2c0.6-1.3,1.1-1.8,1.5,0.1c-2.2,4.7-4.6,9.3-7.7,13.5c-1.9,2.6-4.3,4.5-7,6.2c-1.8,1.2-3.3,1-4.7-0.5
		C320.4,253.2,321.6,242.2,324.9,239.1z"/>
	<path fill="#FCFCFA" d="M345.4,280.3c-0.1,0.9-0.2,1.8-0.3,2.7c0.6,3-1.2,4.2-3.7,4.9c-3.3-1.8-4.5-5.2-6.5-8.1
		c-0.9-2.4-4-3.9-2.7-7.1c2.6-1.4,5.1-3.2,8.3-2.5c0.5,1.3,1,2.6,1.5,3.9C343.8,275.8,343.1,278.9,345.4,280.3z"/>
	<path fill="#FCFBFC" d="M326,279.5c-0.6-0.9-1.1-1.8-1.7-2.6c0.2-1.5,0.5-3,0.7-4.5c0-1.2,0.3-2.1,1.6-2.2c1.5,0.5,2.4,1.6,3.4,2.7
		c1.8,2.5,3.6,5,5.4,7.5c1.6,3,4,5.3,5.4,8.4c0.4,1.4,0.1,2.6-0.6,3.9c-0.3,0.4-0.6,0.7-1,0.9c-1,0.3-1.8,0-2.3-0.9
		C334.4,287.3,329.9,283.6,326,279.5z"/>
	<path fill="#6F9A2B" d="M329.3,273.1c-0.9-0.8-1.8-1.6-2.6-2.5c0.9-5.6,6.3-9.1,10.9-7.2c1.6,2,3.3,3.9,3,6.8
		c-2.9,0.9-5.4,2.7-8.5,3C331.1,274.2,330.3,273.3,329.3,273.1z"/>
	<path fill="#E1C756" d="M324.9,239.1c-1.9,6.1-4.3,12.1-1.9,18.6c-2.5-0.5-1.6-2.5-1.7-3.9c-0.5-4,0.2-8-1.3-12.2
		c-1.1-3.3,1.9-6.9,5.8-8.3C325.5,235.2,325.2,237.1,324.9,239.1z"/>
	<path fill="#FC5808" d="M337.6,263.4c-5.8-0.9-8.1,3.6-10.9,7.2c-0.6,0.6-1.2,1.2-1.7,1.8c-0.2-0.2-0.6-0.3-0.7-0.6
		c-1.1-4.7,2.9-6.5,5.3-9.2c1.9-2.1,4.4-1.7,6.7-1C336.9,261.9,337.2,262.8,337.6,263.4z"/>
	<path fill="#F4CB5A" d="M345.4,280.3c-5.8,0.4-2.5-4-3.3-6.2c0.6,0,1.2-0.1,1.9-0.1C344.3,276.1,346.5,277.8,345.4,280.3z"/>
	<path fill="#116312" d="M78,126.1c-4.2-1-5.1-5.6-8.1-7.8c-2.4-4.3-5.5-8.4-6.2-13.5c-1.9-5.8-0.6-11,3.4-15.5
		c1.1-1.6,0.2-4,2.2-5.2c1-0.1,1.7,0.5,2.5,0.9c0.8,0.4,1.7,0.7,2.5-0.1c0.4-0.4,0.5-1.1,0.3-1.7c-0.4-1.1-1.3-1-2.3-0.8
		c-1,0.1-2,0.9-2.9-0.2c-0.7-2.4,0.8-3.4,2.6-3.9c2.6-0.7,4.5,0.5,5.7,2.5c3,4.9,6.1,9.7,8.4,15c3.7,8.4,6,17.3,9.9,25.7
		c3.2,5.8,4.6,12.3,7.4,18.2c0.3,1-0.1,1.2-1,1c-4.2-7.9-8.4-15.8-12.6-23.6c-4-5.4-7.4-11.3-12.5-15.9c-0.8-0.7-1.5-1.5-2.3-2.2
		c-1.4-1.2-2.8-1.6-4.5-0.6c-1.7,1-2.1,2.6-1.5,4.3c1.8,5.7,3.7,11.4,7.1,16.5C77.6,121.2,79.5,123.3,78,126.1z"/>
	<path fill="#D06534" d="M96.1,121.5c-2.6-3.7-4.8-7.7-6-12.1c-2.8-9.9-7.6-18.7-12.9-27.4c-1.1-1.8-2.3-3.3-4.7-2.8
		c-1.7,0.4-3.3,1.1-2.8,3.4c0.5,0.6,0.4,1.1-0.2,1.6c-1.3,1.7,0.1,4.2-1.6,5.7c-1-1.3-1.9-0.6-3.1,0c-3.5,1.7-6.1,0.9-7.9-2.5
		c-1.4-2.5-2.2-5.3-1.8-8.2c0.3-2.5,1.8-4,4.1-4.8c7.7-2.9,9.4-7.9,5.3-15.1c-0.2-0.4-0.3-0.8-0.4-1.3c0.1-0.5,0.2-1.1,0.3-1.6
		c5.2,3.2,8.4,7.9,10.7,13.4c2.1,6.1,5.3,11.7,8.2,17.4C88.9,98.2,93.1,109.6,96.1,121.5z"/>
	<path fill="#B32D36" d="M110.7,137.9c0,2.1,2.1,2.9,2.8,4.5c-2,1.6-3.8,3.8-6.6,4.1c-1.4-0.7-2.4-1.6-1.4-3.3
		c2.5,0.3,2.7-1.2,2.2-3.1c-0.8-2.8-1.6-5.7-2.6-9.4C107.3,133.6,109,135.8,110.7,137.9z"/>
	<path fill="#B83636" d="M83.5,87.2c-4.2-5.1-7.2-10.8-8.2-17.4C78.6,75.3,82,80.8,83.5,87.2z"/>
	<path fill="#49531D" d="M105.5,143.3c0.5,0.9,1.1,1.9,1.6,2.8c0.7,1,0.4,1.6-0.7,2c-2.8-1.3-3.4-3.9-3.9-6.6c0-0.3,0-0.6,0-0.9
		c0.3-0.3,0.7-0.7,1-1C104.2,140.9,104.8,142.1,105.5,143.3z"/>
	<path fill="#DD1EA8" d="M415.6,299.9c-1.4,2.2-4.4,2-5.9,4.1c-2.5,1.5-5,3.2-7.9,3.7c-0.8,0.3-1.7,0.6-2.5,0.8
		c-2.8-2-6.2-3.4-7.2-7.2c4.5-2.5,9.1-5,13.6-7.5c1.3-0.2,2.5-0.9,3.5-1.7c2.5-2,4.2-1.5,5.4,1.4
		C415.2,295.6,417.1,297.5,415.6,299.9z"/>
	<path fill="#621F75" d="M392.1,301.3c2.2,2.6,5.5,4.1,7.2,7.2c-2.7,2-6.5,2.2-8.5,5.4c-4.3-2.3-6.4-6.7-9.7-9.9
		c1.1-0.8,2.1-1.9,3.5-2.1C387.2,302.3,389.5,300.6,392.1,301.3z"/>
	<path fill="#FC5570" d="M430.9,276.7c2-1.5,4-2.9,6.1-4.4c6.1-3.2,8.3-1.8,9.1,5.8c-1.1,3.9-4.4,5.1-7.6,6.5
		C434.8,283,433.9,278.8,430.9,276.7z"/>
	<path fill="#FC9B8A" d="M430.9,276.7c4.5,0.4,4.5,5.3,7.4,7.4c0.3,2.7-3,2.2-3.6,4.1c-0.9,0.5-1.9,1-2.8,1.6
		c-5.8-0.2-7.7-3.6-5.4-9.4C427.9,279.1,429.4,277.9,430.9,276.7z"/>
	<path fill="#DE21A6" d="M445.4,278.6c-0.2-0.4-0.6-0.7-0.6-1.1c-1-6.5-1.3-6.8-7.8-5.2c2.3-2.8,5.7-4.2,8.4-6.4
		c1.4,1.3,3.2,0.9,4.7,0.9c4-0.2,4.5,1.4,2.5,4.5C451.5,274.9,449.7,277.9,445.4,278.6z"/>
	<path fill="#DDF852" d="M415.6,299.9c0.6-2.6-2.1-4.2-2-6.6c0.3-1.6-1.7-2.3-1.6-3.8c2.2-1.3,4.4-2.7,6.7-4
		c3.3,2.3,5.5,5.1,4.5,9.4C420.9,297.1,418.3,298.5,415.6,299.9z"/>
	<path fill="#F75571" d="M423.1,294.9c-0.6-3.6-2.7-6.4-4.5-9.4c2.6-1.8,5.2-3.5,7.8-5.3c-0.4,4.4,0.1,8.3,5.4,9.4
		C429.2,291.9,426.2,293.5,423.1,294.9z"/>
	<path fill="#D8B961" d="M412,289.5c1.1,1,2.3,2,1.6,3.8c-0.9-2-2-2.1-3.7-0.7c-1.1,0.9-2.2,2.9-4.2,1.2
		C407.4,291.8,409.7,290.7,412,289.5z"/>
	<path fill="#38A203" d="M435.8,184.3c-2.3-0.3-3.8-1.7-3.7-4.4c0.2-3,2.1-4.2,4.9-4c2.5,0.2,4,1.6,3.9,4.1
		C440.7,182.8,439.2,184.5,435.8,184.3z"/>
	<path fill="#CD1436" d="M405.9,186c-2.8-0.5-4.6-1.8-4.6-4.5c0-2.6,1.6-4.4,4.2-4.4c2.8-0.1,4.6,1.7,4.6,4.5
		C410,184.3,408,185.5,405.9,186z"/>
	<path fill="#D49B15" d="M424.9,180.4c-0.1,2.7-1.5,4.4-4.1,4.5c-2.8,0.1-4.5-1.5-4.5-4.5c0-2.7,1.7-4.2,4.3-4.2
		C423.2,176.2,424.7,177.8,424.9,180.4z"/>
	<path fill="#C96D0F" d="M211.5,351.7c5.1,1.4,4.7-1.9,4.4-5.1c0,0,0.2-0.1,0.2-0.1c5.4-1.6,10.8-2,16.2,0.2c-2.1,3.4,0,5,2.8,6.3
		c-20.2,0-40.5-0.1-60.7-0.1c-0.1-0.2-0.2-0.4-0.2-0.7c10.7,0,21.3,0,32,0C207.9,352.1,209.7,351.8,211.5,351.7z"/>
	<path fill="#E19204" d="M30.9,349.3c-3.7,1.7-7,4.8-11.6,3.7c-1.9-0.4-4.3-0.3-4.6-2.7c-0.4-2.9,2.4-3,4.1-3.2
		C22.9,346.7,27.6,344.4,30.9,349.3C30.8,349.4,30.9,349.3,30.9,349.3z"/>
	<path fill="#AB1401" d="M326.8,450.2c-2.2-1.4-2.8-3.6-3.8-8.9c-1.6-8.8-3.3-17.5-7.2-25.7c-1-3.3-1.9-6.5-1.7-10.7
		c3.1,2.8,3.6,6.3,4.9,9.3c4,9.1,6.5,18.7,11.8,27.3c0.6,1,0.3,2.6,0.4,4C330.7,447.9,328.3,448.6,326.8,450.2z"/>
	<path fill="#6A17AB" d="M326.8,450.2c0-3,3.1-3.1,4.4-4.8c3.1-4.1,0.9-8.9,2-13.3c1-0.4,1.8,0.2,2.6,0.8c0.5,1.8,1.1,3.6,1.6,5.4
		c0.1,2.2-0.1,4.5,0.5,6.7c0.9,3.6,1.3,7-2.6,8.9C331.4,455.8,329,453,326.8,450.2z"/>
	<path fill="#F8EAEB" d="M297.8,355.7c3.9,7.9,8.7,15.4,13.3,22.9c0.3,1,0.7,1.9,1.3,3.7c-5.3-3.2-6.9-8.4-10.2-12.3
		c-2.9-7.1-6.4-13.9-10.1-20.7C295.7,350,295.5,353.9,297.8,355.7z"/>
	<path fill="#C23F0A" d="M339.5,292.7c0-1.2,1.2-2.3,0.6-3.6c-0.4-1.2,0.2-1.6,1.3-1.5c2.1-0.8,2.8-2.8,3.7-4.5
		c2.1-2.3,4.2-4.7,6.3-7c4-2.2,6.6-5.8,9.7-9c9.9-7,17.6-16,23.9-26.2c2.2-3.6,4-7.4,6.9-10.5c0.1,1.3-0.5,3.6,2.1,1.4
		c1.5-1.2,3.2-3.6,5.3-2.4c1.8,1,0.6,3.6,0.8,5.4c0.7,6.7-4.1,11.7-5.4,17.8c-3.9,4.2-7.4,8.8-11.9,12.4c-2.1-1.6-4.5-3-4.6-6.9
		c-2.6,2.9-4,6-6.5,8.1c-1.4,1.1-0.8,1.9,0.4,2.8c1.4,1.1,3.1,2,2.8,4.2c-5.6,7.1-12.7,12.9-17.7,20.5c-0.8,1.3-1.6,2.6-2.4,3.8
		c-0.5,0.6-1,1.2-1.5,1.8c-1.5-0.4-1.3-1.7-1.5-2.8c1.8-4,1.4-7.5-2.1-10.5c-0.4-4.5,4.2-5.4,5.6-8c-5.2,3.9-9.3,9.6-13.7,15.1
		C340.9,293.6,340.2,293.3,339.5,292.7z"/>
	<path fill="#7CF392" d="M376.7,246.8c-4.7,3.6-8.1,8.4-12.2,12.7c-1.2,1.3-2.5,2.6-4,3.6c-1.5,1.1-3.3,1.4-5.1,0.2
		c-1.8-1.2-1.8-3-1.5-4.9c0.3-1.8,1.4-3.4,1-5.3c0.3-0.3,0.6-0.6,0.8-0.9c2.1-0.8,4.3-3.5,6.4-0.1c4.4,0.7,9.2-4,9.3-9.3
		c0-0.6-0.2-1.2-0.2-1.8c0.8-2.8,1.6-5.5,5.4-3.9c0.9,1.4,1.9,2.8,2.9,4.1c-0.2,1.7-1.2,3.1-2.2,4.5
		C377.2,246.2,376.9,246.5,376.7,246.8z"/>
	<path fill="#08A48F" d="M377.4,245.9c0.6-1.5,1.2-3.1,1.8-4.6c-0.6-2.5,0.1-5.7-3.6-6.4c-0.4-0.2-0.7-0.5-0.9-0.8
		c1.9-2.6,4.1-5,7.2-6.3c1.3,0.9,2.4,1.1,2.8-0.9c1.2-0.7,2.6-1.4,3.8-0.6c1.5,1.1,0.3,2.5-0.1,3.7
		C386.3,236.4,381.7,241,377.4,245.9z"/>
	<path fill="#A1EFA6" d="M374.7,234.1c0.3,0.1,0.7,0.1,1,0.2c1,1,2,2,0.7,3.5c-3.3-1-3.7,1.5-4.5,3.7c-5.1,2.5-8.2,6.9-10.8,11.7
		c-0.9-1.7-1.9-2.8-3.6-0.6c-0.6,0.8-1.6,1.8-1.9-0.3C360.1,244.2,366.5,238.2,374.7,234.1z"/>
	<path fill="#B4D5C1" d="M384.7,226.9c0.7,1,2.6,2.2,1.2,3.1c-1.4,0.9-3.5,0.2-4-2.2C382.9,227.5,383.8,227.2,384.7,226.9z"/>
	<path fill="#111C7F" d="M286.7,275.1c2.5-3.5,6.7-5,9.3-8.4c4.3,4.2,8.1,8.7,7.9,15.3c-3,0.4-4.7,2.5-6.2,4.8
		c-0.8,0.5-1.6,0.8-2.6,0.7C291.2,286.8,286.1,279.3,286.7,275.1z"/>
	<path fill="#8BF8F0" d="M313.9,289.6c1.4,1.3,3,2.5,4.3,3.9c4.3,4.8,4.2,6.5-0.6,11.4c-2.8-3.4-7.3-5.9-5.5-11.5
		c0.5-1.6-1.1-2.6-2.1-3.7c-1.6-1.8-3.4-3.4-3.3-6C309.1,285.6,311.5,287.6,313.9,289.6z"/>
	<path fill="#4958D8" d="M286.7,275.1c1.8,6.4,6.5,11.5,10.9,11.7c-1.6,2.1-3.2,4.1-5.5,5.4c-2.1-0.7-3-2.3-3.7-4.2
		c-1-3-3-5.5-4-8.4c-0.1-0.4,0-0.8,0.1-1.2C284.9,277,285.3,275.8,286.7,275.1z"/>
	<path fill="#FC80E0" d="M289.3,287.7c0.9,1.5,1.8,3,2.8,4.5c-0.7,1.9-2.2,3.1-3.6,4.4c-3.4-0.3-4.8-2.8-6.2-5.4
		C283.2,287.1,286.2,287.4,289.3,287.7z"/>
	<path fill="#84F3ED" d="M314.9,309.4c-0.3,0.3-0.6,0.7-0.9,1c-2.3-0.5-3.7-2-4.4-4.1c-0.4-1-0.2-2.2,0.8-2.8
		c1.1-0.6,1.6,0.5,2.1,1.2C313.6,306.1,315,307.4,314.9,309.4z"/>
	<path fill="#C7C460" d="M445.4,278.6c3-1.9,4.9-4.8,7.2-7.4c0.6,1.1,1.5,0.3,2.3,0.3c-3.2,4.9-7.9,8.3-12,12.2
		c-0.6,0.4-1.3,0.7-1.9,1.1c-2.1,1.1-4.2,2.2-6.3,3.3c0.3-2.2,3-2.2,3.6-4.1C440.9,282.5,443.5,281,445.4,278.6z"/>
	<path fill="#B69460" d="M401.8,307.7c2.6-1.2,4.9-3.3,7.9-3.7C407.5,306.3,405.2,308.2,401.8,307.7z"/>
	<path fill="#0515A7" d="M473.5,262.1c-1,2.5-3.1,3.4-5.2,4.2c-1.3,0.5-2.6,0-2.6-1.5c0-2.9,2.7-2.8,4.6-3.4
		C471.4,261.1,472.6,261,473.5,262.1z"/>
	<path fill="#0517AE" d="M459.6,277.8c-1.8,0-3.4-0.3-3.3-2.3c0.1-1.8,1.7-2.1,3-2c1.6,0.1,3.9,0.2,3.9,2.2
		C463.3,277.9,461,277.6,459.6,277.8z"/>
	<path fill="#442B19" d="M232.3,346.7c-5.4-0.1-10.8-0.1-16.2-0.2c-0.1-0.3-0.1-0.5-0.1-0.8c3.7-2.1,7.8-0.9,11.7-1
		c2.5-0.1,3.9-0.9,4.4-3.3c1.8-0.2,3.8,0.3,5.5-0.8c9.2-1.2,18.2-0.3,27.3,0.8c-0.3,2.4-2.3,1.9-3.7,2c-2.8,0.2-5.7,0.2-8.6,0.1
		c-1.9-0.1-3.2,0.6-4,2.3C243.3,346.2,237.7,344.9,232.3,346.7z"/>
	<path fill="#EF6917" d="M265,342.1c-1.4-1.8-3.3-0.8-5-0.9c-7.4-0.7-14.9,1.2-22.3-0.7c0.7-0.4,1.3-0.8,2-1.2
		c4.2-1.2,8.5-1.1,12.7-0.3c1.8,0.4,3.5,0.3,5.3,0.4c2.6,1.6,5.5,0.8,8.3,0.9c0.9,0.4,1.8,0.7,2.8,1.1c0.9,1.2,1,2.4-0.1,3.5
		c-1.2,1-2.3,1-3.5,0C264.2,343.9,264.3,343,265,342.1z"/>
	<path fill="#040201" d="M265,342.1c0,0.9,0.1,1.8,0.1,2.7c-5.4,1.8-10.9,0.5-16.3,0.8c-1.7-2.4-1.9-3.8,1.8-3.6
		C255.3,342.2,260.2,342.1,265,342.1z"/>
	<path fill="#060201" d="M268.5,344.8c0-1.2,0.1-2.3,0.1-3.5c0.9-0.2,1.8-0.3,2.7-0.5c1.8,0.1,3.6,0.4,5.3,0.2
		c3.7-0.4,5.3,0.9,4.5,4.7C277,345.2,272.6,346.7,268.5,344.8z"/>
	<path fill="#EB8DFD" d="M326,279.5c5.7,2.1,8.4,7.2,11.6,11.8c0.5,0.7,0.5,1.7,1.7,1.4c0.6,0.8,0.2,1.3-0.3,1.9
		c-4.5,2.8-6.8,7.1-7.9,12c-1.1,4.8-2.1,9.7-2.2,14.6c0,1.6,0.2,3.4-1.3,4.5c-0.2,0.9-0.5,1.7-0.6,2.6c-0.1,2.1-1.8,1.9-3,1.9
		c-1.7,0-1-1.5-1.1-2.4c-0.1-6.8,0-13.5,0-20.3c1.6-8.3,1.2-16.8,2.2-25.2C325.1,281.5,325.6,280.5,326,279.5z"/>
	<path fill="#1D4BB0" d="M141.6,175.1c1.8,4.1,2.8,8.4,2.6,12.9c-0.1,3.3-1.3,4.7-4.5,4.4c-1.6-1.5-3.2-2.9-4.8-4.4
		c0.1-1.3,1.1-2.1,1.9-2.9c1.3-1.3,2.1-2.6,0.3-4.1c-1.6-1.2-3-0.9-4.3,0.5c-0.8,0.9-1.1,2.1-2.2,2.8c-3-2.7-6-5.5-9-8.2
		c-4.5-5.1-9-10.3-13.5-15.4c2.3-1.3,3.7,0.5,5.1,1.6c4.2,3.4,8.5,6.7,12,10.9c0.4-1.5-0.3-2.8-0.2-4.1c0.4-3.6-1.3-6.9-1.1-10.4
		c0.5-0.9,1.1-1.8,2.2-0.5c3.8,2.8,7.6,5.7,11.5,8.5c1.7,1.2,3.5,2.4,3.1,4.9c-1,0.7-2.2,0.8-3.4,1c-1,0.2-2.2,0.5-1.9,1.9
		c0.3,1.3,1.3,1.4,2.5,1C139,175.1,140.2,174.3,141.6,175.1z"/>
	<path fill="#A92F3C" d="M126,158.1c-0.7-0.1-1.3-0.1-1.6,0.7c-1.4,3.9-0.7,7.6,1.7,10.9c0.2,1.9,0.5,3.7,0.8,6.1
		c-4.5-4-8.6-7.8-12.9-11.4c-1.8-1.5-3.3-3.5-5.9-3.7c-6.1-5.1-6.2-12-5.6-19.1c1.2,2.1,2.5,4.2,3.7,6.3c1.4,0.5,2.2,1.6,3.1,2.6
		c3.3,3.6,5.6,3.3,7.8-1.1c0.3-0.5,0.5-1.1,1-1.5c0.3,0,0.6,0.1,0.9,0.1c-0.4,3.1,1.9,5.3,2.9,7.9c0.9,2.4,1.6-0.5,2.5-0.6
		C124.8,156.2,125.4,157.2,126,158.1z"/>
	<path fill="#EAC31F" d="M141.5,162.4c2.4,1.2,4.9,2.6,4.1-2.2c-0.1-0.7,0.8-0.6,1.4-0.4c1.1,2.2,3,4.1,2.6,7
		c-0.3,2.1-1.4,2.8-3,1.6C144.4,166.9,142.1,165.4,141.5,162.4z"/>
	<path fill="#1884E2" d="M141.6,175.1c-1.4,0.6-2.8,1.1-4.1,1.9c-2.8,1.7-3-1.2-3.7-2.4c-1-1.7,0.2-3,1.9-3c1.6-0.1,3.2-1,4.8,0
		c0.1,0.2,0.2,0.5,0.3,0.8C141.1,173.2,141.4,174.2,141.6,175.1z"/>
	<path fill="#0518BB" d="M288.8,247.7c-2.3,3.2-5.7,5.1-8.8,7.5c-1.6,1.3-2.5,0.7-3.5-0.9c-2-3.1-4.1-6.2-6.2-9.3
		c-3.4-2.6-4.8-6.1-5.3-10.2c3.1-5.2,6.1-10.3,10.4-14.6c1.4-1.4,2.9-2.5,4.1,0.3c-0.1,2.3-2.2,3.1-3.5,4.4
		c-2.3,2.5-2.4,4.7-0.1,7.1c2.2,2.2,4.6,2.1,7.2-0.1c1.2-1,1.3-3.2,3.4-3.3c1,1.3,2.1,2.6,3.1,3.9c-1.1,3.6-3.9,5.8-7.2,6.6
		c-2.1,0.5-2.1,1-1.3,2.5C282.9,244.7,284,248.5,288.8,247.7z"/>
	<path fill="#0A62BF" d="M286.6,228.7c-1,2.2-2.1,4.3-4.4,5.5c-3,1.6-5.4,1.1-7.5-1.6c-2.1-2.7-2.9-5.2,0.1-7.8
		c1.6-1.4,3.1-2.8,4.7-4.2C282.4,222.8,285.2,225.1,286.6,228.7z"/>
	<path fill="#C6AE9D" d="M265.1,234.8c1.8,3.4,3.5,6.8,5.3,10.2c-0.7,0.4-0.8,1.1-0.8,1.8c-1.2-1.5-2.5-3-3.7-4.5
		c0.4-2-1.7-2.8-2-4.5C265.3,237.2,264.7,235.8,265.1,234.8z"/>
	<path fill="#050505" d="M232.9,217.3c-1.1-1.6-2.2-3.1-3.3-4.7c5.1-2.9,5.5-5.8,1.2-10c-1.2-1.1-2.4-1-3.6-0.2
		c-1.1,0.7-2,1.8-3.5,1.8c-0.8-1.5-1.5-3-2.3-4.5c7.3-4.8,7.3-4.8,11.7,2.6c1.8,3.1,3.7,6.2,5.6,9.2c-0.1,0.5-0.2,1.1-0.3,1.6
		C237.6,215.9,235.8,217.3,232.9,217.3z"/>
	<path fill="#938866" d="M333.9,210.5c0.3,0.3,0.6,0.6,1,0.9c-1.3,2.1-1.7,4.9-4,6.4C331.8,215.4,331.9,212.6,333.9,210.5z"/>
	<path fill="#4A60E8" d="M232.9,217.3c1.9-1.4,3.7-2.7,5.6-4.1c2,2.3,1.9,6.7,6.3,6.8c-0.4,0.2-0.7,0.3-1,0.5
		c-2.3,0.7-3.5,3.3-6.2,3.5C236,221.7,234.4,219.5,232.9,217.3z"/>
	<path fill="#E9962A" d="M64.3,58c4.5,2.2,4.4,6.3,3.5,10.1c-0.9,3.7-2.9,7-7.5,7.2c-3.1,0.2-4,2-4,4.8c0,2.2,0.7,4.2,1.5,6.1
		c1.7,4.1,4.6,4.7,8.1,1.8c0.6-0.5,1.1-0.9,2-1.7c0.1,1.5,0.2,2.5,0.3,3.5c-4,4.1-4.7,9.1-3.8,14.6c-1.7,0.4-1.9-1.6-3.1-2
		c-0.4-1.7-1.1-3.2-2.5-4.3c-0.6-1.8-1-3.9-2-5.5c-4.8-7.5-4.7-15.8-3.9-24.1C53.4,61.9,58.7,59.6,64.3,58z"/>
	<path fill="#B12937" d="M68.1,121.6c4.7,6.4,9.8,12.5,15.4,18.2c-4.3-1.4-9.1-2-11.8-6.3c-0.9-1.6-1.6-3.3-2.8-4.6
		C66.8,126.5,66.4,124.2,68.1,121.6z"/>
	<path fill="#7432B9" d="M370.3,344.7c0.2,3.3,0.2,6.4-4.6,5.3c-1.2-0.2-2-0.8-1.7-2.2c0.5-2.1-2.6-4.6-0.2-6.2
		C366.9,339.6,367.9,344,370.3,344.7C370.3,344.8,370.3,344.7,370.3,344.7z"/>
	<path fill="#7E31CD" d="M357.1,357.4c-2.4-0.4-3.8-1.8-4.1-4.2c-0.2-1.9,0.7-3.5,2.6-3.5c2.6,0,4.1,1.8,4.4,4.3
		C360.2,356.1,358.9,357.1,357.1,357.4z"/>
	<path fill="#B11B52" d="M363.9,347.8c0.6,0.7,1.1,1.5,1.7,2.2c-0.2,2.4-1.5,3.9-3.8,2.7c-2.3-1.2-3.5-3.9-2.2-6
		C361.1,344.3,362.5,347.2,363.9,347.8z"/>
	<path fill="#060605" d="M327.4,325.9c0-7.4,0.8-14.8,3-21.9c1.3-4.2,3.5-8,8-9.7c1.5,1.8,0,3-0.8,4.3c-0.8,1.4-1.5,2.9-2.1,4.4
		c-2.5,5.9-3.5,12.1-3.1,18.6c0,3.2,0,6.4,0.1,9.6c0.1,3.5,1.5,6.7,2.9,9.8c1.3,1.5,3.4-0.3,4.8,1c0.8,0.3,1,0.9,1,1.6
		c-2,1.1-4.1,2.2-6.1,3.4c-1.6,0-2.8-0.9-3.9-1.9C327.7,339,328.3,332.3,327.4,325.9z"/>
	<path fill="#97CD12" d="M340.2,341.9c-1.8,0-3.6,2.2-5.4,0.2c0-2.8,2.4-3.2,4.2-3.9c5.3-1.9,9.5-4.4,8.4-11.1
		c-0.2-1.1-0.1-2.8,1.8-3c0.1,1.2-0.3,2.6,0.2,3.5c4.2,7.7-1.1,10.4-6.6,13.1C342,341,341.1,341.4,340.2,341.9z"/>
	<path fill="#FDFDFD" d="M241.2,94.4c2.8-1,5.7-2.1,8.5-3.1c4.9-0.6,9.5,0.3,14,2c3.1,1.8,5.7,4.2,8.3,6.7c1.1,2.1,2.2,4.2,3.2,6.3
		c0.8,3.5,1.4,7,1.1,10.6c-0.6,2.2-1.2,4.4-1.8,6.6c-2.3,4.3-5.5,7.7-9.5,10.4c-4,1.9-8.3,2.8-12.8,3c-3.1-0.8-6.1-1.7-9.2-2.5
		c-5-3.1-8.9-7.3-11.1-12.8c-0.9-3.6-1.4-7.3-1-11C232.1,103.7,235.9,98.5,241.2,94.4z"/>
	<path fill="#949D2C" d="M375,273.2c-1.4-2.6-5.7-3.4-5.8-5.7c-0.1-2.3,3.9-3.7,5.4-6.2c1.2-2,2.2-4.3,5.5-5.3
		c-2.7,4.5,2.5,5.7,2.9,8.9C380.7,268.1,377.9,270.7,375,273.2z"/>
	<path fill="#1BB1DE" d="M138.1,119.5c2.6,1,3.7,3,3.8,5.8C139.6,124.2,138.7,121.9,138.1,119.5z"/>
	<path fill="#A8E011" d="M331.4,332.1c0-3.6,0-7.2-0.1-10.9c3.4,0.8,5.1-0.9,6.3-4c0.9-2.3,1-5.5,4.4-6c0.7,0.6,0.9,1.5,1.6,2.1
		c0.5,0.5,1.1,0.4,1.4-0.2c0.4-0.7,0.4-1.4,0.3-2.2c-0.1-0.8-0.6-0.9-1.3-0.5c-0.7,0.4-1.3,1.3-2.3,0.6c-1-5.9-1-5.9-7.1-8.8
		c-0.1-3.3,3.5-4.9,3.7-8.1c0.3-0.5,0.5-1,0.8-1.5c0,0,0.3-0.1,0.3-0.1c0.5,0.1,1,0.2,1.5,0.3c1.3-0.4,1.9,0.7,2.6,1.3
		c2.8,3.6,6,3.6,9.5,1c0.1,1.4,0.2,2.7,0.3,4.1c-2.9,5.1-3.4,10.8-4.3,16.5c-2.8,4.1-5.4,8.3-8.5,12.2c-1.5,1.9-3.2,3.7-5.4,4.6
		C334,333.1,332.5,334.3,331.4,332.1z"/>
	<path fill="#3E8B23" d="M331.4,332.1c2.7,1.3,4.2-0.9,5.7-2.2c3.2-2.7,5.7-6.2,7.6-9.9c1-2,2.3-3.4,4.3-4.3c0,2.7,0.1,5.5,0.1,8.2
		c-1.6,2.2-0.9,4.7-0.8,7c0.1,2.8-1.1,4.2-3.4,5.7c-3.3,2-7.6,2.1-10.2,5.4C333.2,338.9,331.9,335.7,331.4,332.1z"/>
	<path fill="#244D98" d="M61.2,102.5c1.4,0,2.1,1.3,3.1,2c1.9,4.6,3.7,9.2,5.6,13.9c-1.2-1.2-2.4-2.5-3.6-3.7
		c-0.3-0.1-0.6-0.2-0.9-0.3C64,110.3,62.6,106.4,61.2,102.5z"/>
	<path fill="#E4E6F9" d="M379.2,384.7c-1.8-0.6-2.9-1.6-2.5-3.7C379,381.2,379.7,382.6,379.2,384.7z"/>
	<path fill="#7F4828" d="M118,147.9c0.5,3.1-0.8,5.3-3.7,6.2c-3,0.9-4.7-1-6.2-3.2c-0.7-1-1.3-2-1.9-3c0.8-0.4,0.8-1.1,0.9-1.8
		c2.2-1,3.3-4.1,6.4-3.7C115.6,143.7,116.6,146,118,147.9z"/>
	<path fill="#F26052" d="M386.4,363.2c-0.3,3.9-0.4,8-5.1,9.6C381.6,368.9,381.2,364.6,386.4,363.2z"/>
	<path fill="#AA2F3C" d="M78,126.1c0-2.5-1.5-4.5-2.8-6.5c-3.6-5.3-5.6-11.3-7.5-17.3c-0.7-2.4-0.1-3.5,1.8-4.8
		c2-1.4,3.9-1.9,5.7-0.1c5.7,5.9,12.1,11.4,14.7,19.7c-1.5,1.3-2.9-2.3-4.3-0.2c-1,1.7,0.3,3.2,1,4.6c1.6,3.4,3.4,6.8,4.1,10.5
		c0.3,1.5,2,3.5,0.1,4.4c-1.3,0.6-3.5,0-5-1.2c-0.6-0.5-1-1.1-1.4-1.7c-1.4-2.5-3.4-4.7-5.5-6.7C78.6,126.6,78.3,126.4,78,126.1z"/>
	<path fill="#5B3E74" d="M78.9,126.8c3.5,0.9,4.8,3.5,5.5,6.7C82.4,131.4,79.3,130.3,78.9,126.8z"/>
	<path fill="#B81D22" d="M192.9,274.1c-3.6-2.8-2.4-8.2-6.1-10.9c-1.2-4.8-2.4-9.6-3.6-14.4c0.1-0.7,0.1-1.4,0.2-2.2
		c1.5,0.2,1.7,1.5,2.2,2.6c2.7,6.5,4.8,13.3,7.7,19.7C194.1,270.6,195.1,272.5,192.9,274.1z"/>
	<path fill="#CA933C" d="M158,209.6c2.1,1.2,4.2,2.2,5.2,4.6c-0.7,0-1.3,0.2-1.6,0.8C160.1,213.4,158.4,211.9,158,209.6z"/>
	<path fill="#1114C8" d="M130.6,184.3c-0.2-2.7,1.5-4.2,3.5-5.2c1.8-0.9,3,0.4,4.3,1.5c2,1.7,2,3,0,4.6c-1.2,0.9-2.3,1.9-3.4,2.9
		C132.8,187.7,131.7,185.9,130.6,184.3z"/>
	<path fill="#0F0B0E" d="M40.8,306.9c-5.9-2.2-11.2-0.5-16.3,2.5C27.5,303.2,35.4,302,40.8,306.9z"/>
	<path fill="#12131B" d="M102.4,304.2c-7.7-5.6-16-3.9-24.3-2c7.3-4.7,17.3-4.3,24.3,1C102.3,303.5,102.3,303.8,102.4,304.2z"/>
	<path fill="#1F151D" d="M237.6,223.9c1.8-1.5,3.5-3.4,6.2-3.5c-1.2,2.1-3.3,3.4-5.1,4.9C238.3,224.9,237.9,224.4,237.6,223.9z"/>
	<path fill="#FEB8E1" d="M289.3,287.7c-2.2,1.4-5.6,0.6-7,3.5c-2.2,0.2-3.9,1.6-5.3,3.1c-2.2,2.2-4.2,1.9-6.1-0.3
		c-1.9-2.2-3.2-4.8-3.9-7.5c-1-4.2,3.3-4.8,5.3-6.9c4.2,4.3,8.5,3.7,12.8,0.1C286.5,282.2,288.8,284.4,289.3,287.7z"/>
	<path fill="#FED3C3" d="M285,279.6c-0.1,0.1-0.1,0.3-0.2,0.4c-5.5,6.3-7.3,6.2-12.5-0.5c0.3-0.3,0.7-0.6,1-0.9
		c0.7,0.1,1.7,0,2.1,0.4c2.2,2.3,4.2,2,6.4,0c0.7-0.6,1.7-1.3,2.8-0.6C284.7,278.7,284.8,279.1,285,279.6z"/>
	<path fill="#C96A0D" d="M172.5,352.1c-15.5,0-30.9-0.1-46.4-0.1c-0.1-0.1-0.2-0.2-0.3-0.3c-1.3-1.2-4.6,0.6-4.2-2
		c0.3-2.1,3.3-2.1,5.4-2.1c14.5,0,29,0,43.5,0C170.2,349.4,170.8,351,172.5,352.1z"/>
	<path d="M179.7,340.3c2.7,0.5,5.6-0.9,8.2,0.9c1.2,0.6,2.5,1.3,2.8,2.8c-0.3,2.3-2.1,1.7-3.5,1.7c-5.2,0-10.4,0-15.6,0
		c1.5-1.3,3.4-0.7,5.1-0.7C180.1,344.8,181.6,343.7,179.7,340.3z"/>
	<path fill="#18212E" d="M190.7,343.9c-1.3-0.5-2.3-1.5-2.8-2.8c1.6-1.9,0.4-4.2,0.9-6.3c0.6,0.3,1.3,0.7,1.9,1
		C190.4,338.5,192.7,341.2,190.7,343.9z"/>
	<path fill="#090702" d="M232.2,341.3c1.7,3.1,1,4.6-2.8,4.5c-4.5-0.1-8.9-0.1-13.4-0.1c0-0.9-0.2-2.3,0.7-2.3c3-0.1,4.3-2.8,6.6-4
		C225.6,342.8,229.3,340.3,232.2,341.3z"/>
	<path d="M192.9,274.1c0.6-1.4,0.3-2.7-0.3-3.9c-3.7-7.6-6-15.7-9.2-23.5c-0.1-1.2-0.4-2.4-0.3-3.6c0.1-1.7-1-4,0.8-5
		c2.2-1.2,4,0.7,5.5,2c4.7,4,9.2,8.1,13.8,12.2c5.8,6.4,12.5,11.8,19.1,17.3c4.4,1.9,6.5,6.4,10.5,9c4.4,2.8,8.7,5.9,12.7,9.3
		c2.9,2,5.4,4.2,5.9,8c1.2,2.2,2.3,4.3,3.5,6.5c-1.7,3.4-4.9,1.6-7.4,2.1c-1.8-0.1-3.5,0-5.2,0.6c-2.3,0.9-3.9,0.1-5.1-1.9
		c-1.4-3.7-4.8-5.8-7.4-8.6c-4.3-3.5-8.9-6.3-14.6-3.3c-1.2,0.7-3.4,1.2-1.9,3.5c0,0.6,0,1.3-0.1,1.9c-0.9,0-1.7,0-2.6,0
		c-0.6-0.3-1.2-0.5-1.8-0.8c-2.6-4.1-6.2-7.3-9.5-10.9c-2.2-2.5-4.2-5.1-5.3-8.3C193.7,275.9,193.3,275,192.9,274.1z"/>
	<path fill="#D01226" d="M245.1,288.5c-7.9-5.9-16.8-10.6-22.8-19c-0.3-2.9-3-3.9-4.5-5.9c-0.5-0.7-1.2-1.5-0.6-2.4
		c0.6-1,1.5-0.5,2.4-0.3c4.1,0.7,8.4,0.9,10.9,5c0.3,3.2,0.3,3.2-4.4,2c5.2,4.1,9.4,8.1,13.7,11.9c2.6,2.3,6.5,4.1,6.1,8.7
		c0,0.1-0.2,0.1-0.3,0.1C245.4,288.6,245.2,288.5,245.1,288.5z"/>
	<path fill="#6D1820" d="M245.1,288.5c-0.4-4.4-4.3-6.1-6.9-8.6c-3.7-3.7-7.9-6.9-11.7-10.5c-0.9-0.8-2.8-1.7-1.6-3.1
		c1-1.2,2.1,0.3,3,1c1.9,1.4,2.6,0.8,2.6-1.4c2.8-1.1,3.7,1.2,4,2.9c1,4.9,4.5,8,7.8,11.2c5.3,5.3,10,11,13.6,17.7
		c-0.5,0.4,1.1,2.3-1.1,1.4c-1.5-0.7-1-3.5-3.4-3.2C249.6,293.1,247.6,290.5,245.1,288.5z"/>
	<path fill="#6A171F" d="M264.1,307.6c-0.3,1.3,0.7,3.3-1.6,3.6c-1.9,0.2-2.5-1.4-2.8-2.9c-0.4-2.2,1-2.6,2.7-2.5
		C262.6,306.6,263.2,307.3,264.1,307.6z"/>
	<path fill="#C9C50B" d="M55.6,326.5c-1.6-0.3-2.7-1.3-2.7-3c0-1.6,1-3,2.8-2.8c1.7,0.1,2.6,1.5,2.5,3.2
		C58.1,325.5,57.2,326.4,55.6,326.5z"/>
	<path fill="#B21827" d="M237.7,302.2c1.3,2.3,2.9,2.9,5.3,1.5c1-0.6,2.5-0.4,3.8-0.6c1.3,3.1-1.8,1.7-2.7,2.6
		c-0.7,0.1-1.6,0.1-2.2,0.5c-3,2.1-4.8,1-6.1-2c-0.3-1-0.6-2-0.9-2.9C236.9,298.8,236.8,301.9,237.7,302.2z"/>
	<path fill="#572324" d="M244.2,305.7c0.7-1.1,2.8-0.7,2.7-2.6c2.7-0.5,5.5,0.8,8-0.8c1.3,0.9,1.8,2.1,2,3.6c-3.1,0-6.1,0-9.2,0
		C246.5,305.8,245.4,305.8,244.2,305.7z"/>
	<path fill="#542120" d="M213.3,294.8c-2.2,0.1-3.6,0-1.4-2.5c4.6-5.1,12-4.5,18.7,1.7c-0.3,0.9-1.1,1.3-1.8,1.8
		c-1.5-0.9-3-1.8-4.6-2.7c-3.1-1.3-6.2-1.3-9.3,0.1C214.4,293.7,213.8,294.2,213.3,294.8z"/>
	<path fill="#811D28" d="M228.8,295.7c-0.1-1.3,0.7-1.7,1.8-1.8c2.7,2.5,5.9,4.5,7.1,8.2c-1,0-1.3-2-2.7-0.9
		C232.9,299.4,230.8,297.6,228.8,295.7z"/>
	<path fill="#1D1121" d="M214.9,293.1c3.1-2.7,6.2-2.6,9.3-0.1C221.1,293.1,218,293.1,214.9,293.1z"/>
	<path fill="#010201" d="M164.3,324.1c0.6-0.1,1.2-0.2,1.8-0.3c0.7-0.3,1.4-0.3,2.2-0.3c7.6,0.1,6.3-0.8,6.4,6.3
		c0.2,3.9-2.6,3-4.6,2.5c-1.8-0.4-3.6-1.4-5-2.8C163.7,327.9,164.6,325.9,164.3,324.1z"/>
	<path fill="#2F4A0B" d="M165,329.5c1.8,0.1,3.6-0.8,5,1.6c1.1,1.8,3.3,1.8,4.3-0.9c0.3-0.4,0.5-0.3,0.7,0.1
		c0.2,4.7-3.5,1.8-5.3,2.6c-1.2,1.9-2.7,4-5.2,2.2C161.9,333.4,163.9,331.4,165,329.5z"/>
	<path fill="#4E6D25" d="M175,330.4c-0.2-0.1-0.4-0.1-0.7-0.1c-0.3-6.2-0.3-6.2-8.3-6.5c2.2-1.5,4.7-0.5,7-0.7
		c1.6-0.1,2.1,0.9,2,2.3C175.1,327.1,175,328.8,175,330.4z"/>
	<path fill="#5F9E81" d="M71.8,334.9c-3.1,0-6.2,0-9.2,0C65.6,334.3,68.8,332.9,71.8,334.9C71.8,334.9,71.8,334.9,71.8,334.9z"/>
	<path fill="#257CDD" d="M328.7,238.3c-0.3-7.8,3.9-14.1,7-20.8c0.8-1.7,1.7-1.9,2.7,0.1c3.3,6.4-0.2,21.8-6.1,26
		c-1.9,1.3-3.5,1.1-3.7-1.7C328.6,240.7,328.7,239.5,328.7,238.3z"/>
	<path fill="#3A3D3D" d="M329.3,273.1c1-0.9,1.8,0.3,2.8,0.1c1.2,2,2.3,4.1,3.5,6.1c0,0.7-0.3,1.1-1.1,1.1
		C332.4,278.2,330.8,275.7,329.3,273.1z"/>
	<path fill="#5D94AF" d="M334.5,280.4c0.4-0.4,0.7-0.7,1.1-1.1c1.9,2.7,3.9,5.5,5.8,8.2c-0.4,0.5-0.9,1-1.3,1.5
		C338.2,286.2,336.4,283.3,334.5,280.4z"/>
	<path fill="#0D9E11" d="M69.7,84.2c0.1-0.5,0.1-1.1,0.2-1.6c1.7-1.1,3.3-3,5.5-1c1.2,1.1,0.9,2.5,0.3,3.8
		C74.4,88.1,72.5,87.7,69.7,84.2z"/>
	<path fill="#962855" d="M353.1,295.2c-3.9,5-4.9,5-10.1-0.3c-0.4-4.2,2.7-8.2,7.2-9.3C353.6,288.1,356.6,290.6,353.1,295.2z"/>
	<path fill="#ACBC12" d="M350.1,285.6c-3.3,2.4-6.1,5.2-7.2,9.3c-0.7-0.7-1.3-1.3-2-2c4.6-7.2,10-13.6,17.7-17.7
		C356.4,279.2,352.1,281.4,350.1,285.6z"/>
	<path fill="#FBECD6" d="M361.2,253.2c0.4-5.4,5.6-11,10.8-11.7c2.8,5.3-2.6,7.6-4.5,11.1C366.3,254.9,363.5,254.6,361.2,253.2z"/>
	<path fill="#E0E8CC" d="M376.5,237.8c-0.2-1.2-0.5-2.3-0.7-3.5c4.3,0.3,5.1,1.9,3.5,7C376.5,241.6,376.8,239.4,376.5,237.8z"/>
	<path fill="#D01429" d="M126.1,169.7c-0.8,0.2-2.1,1.2-2.3,0.1c-0.6-3.6-1.9-7.2-1.1-11c0-0.1,1.1,0,1.6,0
		C125.4,162.4,127,165.8,126.1,169.7z"/>
	<path fill="#EEF277" d="M334.7,302.3c7.2-0.1,8.7,1.8,7.3,9l0.1-0.1c-2.1,2.6-2.9,5.8-4.4,8.7c-1.4,2.8-3.4,4.8-6.3,1.4
		C330.9,314.7,331.5,308.3,334.7,302.3z"/>
	<path fill="#A03106" d="M242.9,101.5c6.7-6.3,15-5.8,22.3,1.3c-0.5,2.1-2.5,1.1-3.7,1.7c-1.1,0.6-2.1,1.3-2.1,2.7
		c0,1.2,0.8,1.9,2,2.2c1.3,0.3,2.3,0,3.1-1.2c0.7-1,0.4-2.8,2.2-3c3.9,11.1-0.1,20.1-10,22.4c-2.4,0.5-4.8,0.9-7.1-0.3
		c-8.5-5.8-10.1-12.9-4.3-21.4C247.7,102.1,243.3,103.1,242.9,101.5z"/>
	<path fill="#E80704" d="M242.9,101.5c1.2,0.1,2.4,0,3.6,0.2c1.8,0.4,2.6,1.2,1.3,3.2c-6.8,10-6.5,13.3,2,21.5
		c0.1,0.1-0.1,0.5-0.2,0.8c-6.2-1.1-9.7-5.1-11.2-10.8C236.9,110.7,238,105.4,242.9,101.5z"/>
	<path fill="#B2F07B" d="M266.6,105.1c-0.2,0.8-0.5,1.7-0.6,2.5c-0.4,2.6-2.1,3.4-4.5,3.2c-2.3-0.2-3.6-1.5-3.6-3.7
		c0-2.7,1.7-4,4.3-4.2c1-0.1,2,0.8,2.9-0.2C266.1,103.2,266.6,104.1,266.6,105.1z"/>
	<path fill="#ECF372" d="M342.1,311.3c0.1-0.1,0.2-0.2,0.3-0.3c1.1-1.2,1.8-4.2,3.7-2.7c1.5,1.2,1,4.2-0.1,6.3
		c-0.4,0.9-1.4,1.2-2.3,0.8C341.7,314.7,342.2,312.8,342.1,311.3C342.1,311.2,342.1,311.3,342.1,311.3z"/>
</g>
</svg>
